<svg width="24" height="24" viewBox="0 0 24 24" fill="none" xmlns="http://www.w3.org/2000/svg">
<path d="M23.4985 12.0098C23.4937 11.1249 23.4793 9.19626 22.6755 7.22436C22.5696 6.96945 22.454 6.70974 22.3241 6.45483C21.9823 5.79593 21.5443 5.14184 20.9715 4.54065C20.9089 4.47812 20.8512 4.4156 20.7886 4.35307C18.4493 2.03489 15.3013 1.73189 13.5251 1.56356C13.116 1.52508 12.1918 1.45294 11.0029 1.54432C8.9909 1.69822 5.59744 1.96275 3.1426 4.51179C0.745516 7.00312 0.500031 10.3073 0.500031 11.5481C0.500031 12.2792 0.490404 13.5729 0.80809 15.0446C0.971746 15.7901 1.21723 16.5789 1.58786 17.3628C1.62156 17.4301 1.65525 17.5023 1.68895 17.5696C1.87186 17.9303 2.07883 18.2862 2.31469 18.6373C4.62513 22.0184 8.85613 22.2878 10.6034 22.4465C10.9018 22.4753 11.7682 22.5427 12.9187 22.4609C14.9836 22.3166 18.8055 22.0521 21.2892 19.2097C23.5322 16.651 23.5082 13.3372 23.4985 12.0098Z" fill="#333333" stroke="#333333" stroke-width="0.4"/>
<path d="M22.6755 7.22437L20.4372 9.87441C20.2399 10.1149 19.8933 10.1774 19.6238 10.0187L18.0257 9.23474C17.7128 9.05198 17.3133 9.16741 17.14 9.48484L14.5312 13.3517C14.3242 13.7413 13.7947 13.8038 13.4963 13.4815L10.7382 11.3461C10.4398 11.0191 9.91029 11.0864 9.70331 11.4712L7.08962 16.3143C6.93078 16.6125 6.53608 16.6943 6.27134 16.4875L4.24008 14.9196C3.98978 14.7272 3.62877 14.7849 3.45068 15.0398L1.68896 17.5744" stroke="white" stroke-miterlimit="10" stroke-linecap="round" stroke-linejoin="round"/>
<path d="M16.0426 12.2311C9.18349 17.7764 10.9308 18.3873 9.24607 9.75898C9.17387 9.35017 9.57338 9.0135 9.96327 9.15779L15.8838 11.3125C16.2688 11.4519 16.3603 11.9617 16.0426 12.2311Z" fill="white" stroke="white"/>
</svg>
