<svg width="24" height="24" viewBox="0 0 24 24" fill="none" xmlns="http://www.w3.org/2000/svg">
<path d="M12.6224 19.0003H11.3779C10.9574 19.0003 10.6024 18.6853 10.5524 18.267L10.4196 17.2248C10.1546 17.1387 9.89905 17.0325 9.65627 16.9087L8.82627 17.5537C8.48961 17.8142 8.01572 17.7842 7.7235 17.4837L6.8485 16.6087C6.55016 16.3192 6.52016 15.8453 6.78072 15.5092L7.42572 14.6787C7.30127 14.4359 7.19516 14.1803 7.10961 13.9153L6.06516 13.7825C5.6485 13.7314 5.3335 13.3764 5.3335 12.9559V11.7114C5.3335 11.2909 5.6485 10.9359 6.06683 10.8859L7.10905 10.7531C7.19516 10.4881 7.30127 10.2325 7.42516 9.98977L6.78072 9.15977C6.51961 8.8231 6.55016 8.34866 6.85127 8.05644L7.72627 7.18144C8.01572 6.8831 8.49016 6.85366 8.82572 7.11366L9.65572 7.75921C9.8985 7.63533 10.1541 7.52921 10.4196 7.4431L10.5524 6.39866C10.6024 5.98199 10.9574 5.66699 11.3779 5.66699H12.6224C13.0429 5.66699 13.3979 5.98199 13.4479 6.40033L13.5807 7.44255C13.8463 7.52866 14.1018 7.63477 14.3446 7.75866L15.1746 7.11366C15.5118 6.8531 15.9852 6.8831 16.2774 7.18421L17.1524 8.05921C17.4507 8.34866 17.4807 8.82255 17.2202 9.15866L16.5752 9.98921C16.6996 10.232 16.8057 10.4875 16.8913 10.7525L17.9357 10.8853C18.3518 10.9359 18.6668 11.2909 18.6668 11.7114V12.9559C18.6668 13.3764 18.3518 13.7314 17.9335 13.7814L16.8913 13.9142C16.8052 14.1792 16.6991 14.4348 16.5752 14.6775L17.2202 15.5075C17.4813 15.8442 17.4507 16.3181 17.1496 16.6103L16.2746 17.4853C15.9852 17.7837 15.5107 17.8142 15.1752 17.5531L14.3446 16.9081C14.1018 17.0325 13.8463 17.1387 13.5813 17.2242L13.4485 18.2687C13.3979 18.6853 13.0429 19.0003 12.6224 19.0003ZM9.62794 16.3003C9.67405 16.3003 9.72127 16.312 9.7635 16.3353C10.0696 16.5064 10.4013 16.6442 10.7491 16.7442C10.8557 16.7748 10.9341 16.8659 10.9479 16.9759L11.1035 18.1981C11.1202 18.3375 11.2407 18.4448 11.3779 18.4448H12.6224C12.7596 18.4448 12.8802 18.3375 12.8963 18.2009L13.0524 16.9764C13.0663 16.8664 13.1446 16.7753 13.2513 16.7448C13.5991 16.6448 13.9307 16.507 14.2368 16.3359C14.3341 16.2814 14.4552 16.2909 14.5424 16.3592L15.5146 17.1148C15.6263 17.2014 15.7829 17.1942 15.8785 17.0959L16.7591 16.2153C16.8596 16.1175 16.8674 15.9609 16.7807 15.8487L16.0252 14.8764C15.9568 14.7887 15.9474 14.6681 16.0018 14.5709C16.1729 14.2648 16.3107 13.9331 16.4107 13.5853C16.4413 13.4787 16.5324 13.4003 16.6424 13.3864L17.8646 13.2309C18.0041 13.2137 18.1113 13.0931 18.1113 12.9559V11.7114C18.1113 11.5742 18.0041 11.4537 17.8674 11.4375L16.6429 11.2814C16.5329 11.2675 16.4418 11.1892 16.4113 11.0825C16.3113 10.7348 16.1735 10.4031 16.0024 10.097C15.9479 9.99977 15.9568 9.87921 16.0257 9.79144L16.7813 8.81921C16.8685 8.70699 16.8607 8.55033 16.7629 8.45588L15.8824 7.57533C15.7852 7.47421 15.6279 7.46644 15.5157 7.55366L14.5435 8.30921C14.4552 8.37755 14.3346 8.38699 14.2374 8.33255C13.9324 8.16144 13.6007 8.02421 13.2518 7.92366C13.1452 7.8931 13.0668 7.80199 13.0529 7.69199L12.8974 6.46977C12.8802 6.32977 12.7596 6.22255 12.6224 6.22255H11.3779C11.2407 6.22255 11.1202 6.32977 11.1041 6.46644L10.9479 7.69088C10.9341 7.80088 10.8557 7.89199 10.7491 7.9231C10.4002 8.0231 10.0685 8.16088 9.7635 8.33144C9.66627 8.38644 9.54572 8.37644 9.45739 8.30866L8.48516 7.5531C8.37294 7.46588 8.21683 7.47366 8.12183 7.57144L7.24127 8.45255C7.14072 8.55033 7.13294 8.70699 7.21961 8.81921L7.97516 9.79144C8.0435 9.87921 8.05294 9.99977 7.9985 10.097C7.82683 10.4031 7.68961 10.7348 7.58961 11.0825C7.55905 11.1892 7.46794 11.2675 7.35794 11.2814L6.13572 11.437C5.99627 11.4537 5.88905 11.5742 5.88905 11.7114V12.9559C5.88905 13.0931 5.99627 13.2137 6.13294 13.2298L7.35738 13.3859C7.46739 13.3998 7.5585 13.4781 7.58905 13.5848C7.68905 13.9325 7.82683 14.2642 7.99794 14.5703C8.05239 14.6675 8.0435 14.7881 7.97461 14.8759L7.21905 15.8481C7.13183 15.9603 7.13961 16.117 7.23739 16.2114L8.11794 17.092C8.21516 17.1925 8.37127 17.2003 8.48461 17.1137L9.45683 16.3581C9.50739 16.3203 9.56739 16.3003 9.62794 16.3003Z" fill="#333333" stroke="#333333" stroke-width="0.1"/>
<path d="M11.9999 15.1112C10.4683 15.1112 9.22217 13.8651 9.22217 12.3334C9.22217 10.8018 10.4683 9.55566 11.9999 9.55566C13.5316 9.55566 14.7777 10.8018 14.7777 12.3334C14.7777 13.8651 13.5316 15.1112 11.9999 15.1112ZM11.9999 10.1112C10.7744 10.1112 9.77772 11.1079 9.77772 12.3334C9.77772 13.559 10.7744 14.5557 11.9999 14.5557C13.2255 14.5557 14.2222 13.559 14.2222 12.3334C14.2222 11.1079 13.2255 10.1112 11.9999 10.1112Z" fill="#333333" stroke="#333333" stroke-width="0.1"/>
<circle cx="2" cy="2.3335" r="2" fill="#026BFB"/>
</svg>
