<svg width="24" height="24" viewBox="0 0 24 24" fill="none" xmlns="http://www.w3.org/2000/svg">
<path fill-rule="evenodd" clip-rule="evenodd" d="M15.7419 19H20.2501C21.2151 19 22.0001 18.2587 22.0001 17.3473C22.0001 16.8636 21.777 16.4057 21.3781 16.0845C19.8671 14.8775 19.0001 13.1134 19.0001 11.2443V8.61107C19.0001 4.96564 15.86 2.00002 12.0001 2.00002C8.14008 2.00002 5 4.96564 5 8.61107V11.2443C5 13.1134 4.133 14.8775 2.61212 16.0911C2.22302 16.4057 2 16.8636 2 17.3473C2 18.2587 2.78497 19 3.75012 19H8.25836C8.38741 20.9519 10.0161 22.5 12.0001 22.5C13.9841 22.5 15.6128 20.9519 15.7419 19ZM14.2363 19H9.76391C9.88858 20.1238 10.8435 21 12.0001 21C13.1565 21 14.1116 20.1238 14.2363 19ZM6.5 8.61107C6.5 5.74661 8.96698 3.41668 12.0001 3.41668C15.0331 3.41668 17.5001 5.74661 17.5001 8.61107V11.2443C17.5001 13.5307 18.561 15.6897 20.412 17.1678C20.4451 17.1942 20.5001 17.2529 20.5001 17.3473C20.5001 17.4756 20.386 17.5833 20.2501 17.5833H3.75012C3.61407 17.5833 3.5 17.4756 3.5 17.3473C3.5 17.2529 3.55511 17.1942 3.59009 17.1659C5.43909 15.6897 6.5 13.5307 6.5 11.2443V8.61107Z" fill="#333333"/>
<path d="M15.7419 19V18.8H15.5547L15.5423 18.9868L15.7419 19ZM21.3781 16.0845L21.5035 15.9287L21.5029 15.9283L21.3781 16.0845ZM2.61212 16.0911L2.48737 15.9348L2.48638 15.9356L2.61212 16.0911ZM8.25836 19L8.45793 18.9868L8.44558 18.8H8.25836V19ZM14.2363 19L14.4351 19.0221L14.4598 18.8H14.2363V19ZM9.76391 19V18.8H9.54049L9.56513 19.0221L9.76391 19ZM20.412 17.1678L20.2872 17.3241L20.2872 17.3241L20.412 17.1678ZM3.59009 17.1659L3.4653 17.0096L3.46412 17.0105L3.59009 17.1659ZM20.2501 18.8H15.7419V19.2H20.2501V18.8ZM21.8001 17.3473C21.8001 18.1376 21.1156 18.8 20.2501 18.8V19.2C21.3146 19.2 22.2001 18.3797 22.2001 17.3473H21.8001ZM21.2526 16.2403C21.6068 16.5254 21.8001 16.9271 21.8001 17.3473H22.2001C22.2001 16.8001 21.9473 16.286 21.5035 15.9287L21.2526 16.2403ZM18.8001 11.2443C18.8001 13.1766 19.6967 14.9973 21.2532 16.2408L21.5029 15.9283C20.0375 14.7576 19.2001 13.0501 19.2001 11.2443H18.8001ZM18.8001 8.61107V11.2443H19.2001V8.61107H18.8001ZM12.0001 2.20002C15.7605 2.20002 18.8001 5.08672 18.8001 8.61107H19.2001C19.2001 4.84457 15.9595 1.80002 12.0001 1.80002V2.20002ZM5.2 8.61107C5.2 5.08672 8.2396 2.20002 12.0001 2.20002V1.80002C8.04055 1.80002 4.8 4.84456 4.8 8.61107H5.2ZM5.2 11.2443V8.61107H4.8V11.2443H5.2ZM2.73687 16.2474C4.30323 14.9975 5.2 13.1768 5.2 11.2443H4.8C4.8 13.0499 3.96276 14.7574 2.48737 15.9348L2.73687 16.2474ZM2.2 17.3473C2.2 16.9263 2.3939 16.5247 2.73786 16.2466L2.48638 15.9356C2.05215 16.2866 1.8 16.8009 1.8 17.3473H2.2ZM3.75012 18.8C2.88449 18.8 2.2 18.1376 2.2 17.3473H1.8C1.8 18.3797 2.68545 19.2 3.75012 19.2V18.8ZM8.25836 18.8H3.75012V19.2H8.25836V18.8ZM12.0001 22.3C10.1222 22.3 8.58007 20.8343 8.45793 18.9868L8.0588 19.0132C8.19474 21.0694 9.91004 22.7 12.0001 22.7V22.3ZM15.5423 18.9868C15.4202 20.8343 13.878 22.3 12.0001 22.3V22.7C14.0902 22.7 15.8055 21.0694 15.9414 19.0132L15.5423 18.9868ZM14.2363 18.8H9.76391V19.2H14.2363V18.8ZM9.56513 19.0221C9.7009 20.2459 10.7404 21.2 12.0001 21.2V20.8C10.9467 20.8 10.0763 20.0016 9.96269 18.978L9.56513 19.0221ZM12.0001 21.2C13.2597 21.2 14.2993 20.2459 14.4351 19.0221L14.0376 18.978C13.924 20.0016 13.0534 20.8 12.0001 20.8V21.2ZM12.0001 3.21668C8.86745 3.21668 6.3 5.62553 6.3 8.61107H6.7C6.7 5.86769 9.06651 3.61668 12.0001 3.61668V3.21668ZM17.7001 8.61107C17.7001 5.62553 15.1326 3.21668 12.0001 3.21668V3.61668C14.9335 3.61668 17.3001 5.86768 17.3001 8.61107H17.7001ZM17.7001 11.2443V8.61107H17.3001V11.2443H17.7001ZM20.5368 17.0115C18.7313 15.5698 17.7001 13.4674 17.7001 11.2443H17.3001C17.3001 13.5939 18.3906 15.8096 20.2872 17.3241L20.5368 17.0115ZM20.7001 17.3473C20.7001 17.1674 20.5941 17.0573 20.5368 17.0115L20.2872 17.3241C20.2905 17.3267 20.2944 17.3308 20.297 17.335C20.2981 17.3368 20.2987 17.3384 20.2992 17.3398C20.2995 17.3411 20.3001 17.3434 20.3001 17.3473H20.7001ZM20.2501 17.7833C20.4855 17.7833 20.7001 17.5967 20.7001 17.3473H20.3001C20.3001 17.3507 20.2986 17.3587 20.2887 17.368C20.2788 17.3774 20.2649 17.3833 20.2501 17.3833V17.7833ZM3.75012 17.7833H20.2501V17.3833H3.75012V17.7833ZM3.3 17.3473C3.3 17.5968 3.51464 17.7833 3.75012 17.7833V17.3833C3.73521 17.3833 3.72126 17.3774 3.71133 17.368C3.70144 17.3587 3.7 17.3506 3.7 17.3473H3.3ZM3.46412 17.0105C3.40744 17.0565 3.3 17.1663 3.3 17.3473H3.7C3.7 17.3435 3.70052 17.3413 3.70086 17.3401C3.70126 17.3388 3.7019 17.3373 3.70305 17.3353C3.70575 17.3309 3.71035 17.3259 3.71606 17.3212L3.46412 17.0105ZM6.3 11.2443C6.3 13.4674 5.26868 15.5699 3.46531 17.0096L3.71487 17.3222C5.60949 15.8096 6.7 13.5939 6.7 11.2443H6.3ZM6.3 8.61107V11.2443H6.7V8.61107H6.3Z" fill="white"/>
</svg>
