<svg width="25" height="25" viewBox="0 0 25 25" fill="none" xmlns="http://www.w3.org/2000/svg">
<path d="M12.7363 7.48601C13.516 7.48601 14.4932 6.95894 15.0752 6.25617C15.6023 5.61929 15.9866 4.72984 15.9866 3.8404C15.9866 3.71962 15.9756 3.59883 15.9537 3.5C15.0862 3.53294 14.043 4.08198 13.4171 4.81769C12.923 5.37771 12.4728 6.25617 12.4728 7.15659C12.4728 7.28836 12.4947 7.42013 12.5057 7.46405C12.5606 7.47503 12.6485 7.48601 12.7363 7.48601ZM9.99113 20.7727C11.0563 20.7727 11.5284 20.059 12.8571 20.059C14.2077 20.059 14.5042 20.7508 15.6901 20.7508C16.8541 20.7508 17.6337 19.6747 18.3694 18.6205C19.193 17.4126 19.5334 16.2267 19.5554 16.1718C19.4785 16.1498 17.2494 15.2384 17.2494 12.6799C17.2494 10.4618 19.0063 9.46255 19.1052 9.38568C17.9412 7.71661 16.1733 7.67269 15.6901 7.67269C14.3834 7.67269 13.3183 8.4633 12.6485 8.4633C11.9237 8.4633 10.9684 7.71661 9.8374 7.71661C7.68517 7.71661 5.5 9.49549 5.5 12.8556C5.5 14.9419 6.31258 17.1491 7.31182 18.5766C8.16832 19.7845 8.91502 20.7727 9.99113 20.7727Z" fill="white"/>
</svg>
