<svg width="24" height="24" viewBox="0 0 24 24" fill="none" xmlns="http://www.w3.org/2000/svg">
<path d="M6.70077 2.439L7.93047 2.095C9.08474 1.773 10.3156 2.294 10.8104 3.312L11.7921 5.34C12.2196 6.223 11.983 7.262 11.2047 7.908L9.04017 9.706C9.17274 10.782 9.58645 11.841 10.279 12.883C10.9371 13.8912 11.8196 14.7736 12.8744 15.478L15.4744 14.718C16.4607 14.431 17.5338 14.762 18.1372 15.539L19.5464 17.349C20.2492 18.253 20.1235 19.499 19.2515 20.265L18.3167 21.086C17.3864 21.903 16.0572 22.2 14.8287 21.864C11.927 21.072 9.2596 18.721 6.82534 14.811C4.38765 10.895 3.52709 7.571 4.24479 4.843C4.5465 3.695 5.48021 2.78 6.70077 2.439Z" fill="#026BFB"/>
</svg>
