<svg width="56" height="56" viewBox="0 0 56 56" fill="none" xmlns="http://www.w3.org/2000/svg">
<path d="M34.056 14.2592L32.5828 15.7324C32.5828 17.6967 39.2866 22.1163 41.2509 24.0806C43.2152 26.0449 49.2792 35.3752 47.315 43.2323C45.3507 51.0895 40.44 52.5627 38.9668 53.5448C37.4936 54.527 34.547 55.018 24.7257 55.018C14.9044 55.018 11.9578 51.5806 9.50245 48.6341C7.0471 45.6877 6.55603 40.2859 7.0471 37.3395C7.43996 34.9824 9.50245 30.7919 10.4846 28.9913L12.9399 25.5538L17.8507 20.6431L21.7792 16.7145V15.2413L20.7971 14.2592L20.306 13.7681V12.786L21.7792 11.8038V10.8217L19.1527 2.96456L19.8149 1.98242L27.5009 3.45563L33.0738 2.47349H34.867L32.5828 10.8217L33.8849 11.8038L34.056 14.2592Z" fill="#026BFB"/>
<path d="M45.1421 27.8746C42.9388 24.6079 40.1221 22.0986 37.8589 20.0823C35.8304 18.2752 34.042 16.6811 33.5923 15.3041C34.536 14.9355 35.2068 14.0171 35.2068 12.9444C35.2068 11.8985 34.5697 10.9988 33.6631 10.6129L35.5347 3.27219C35.7349 2.56358 35.607 1.90906 35.1828 1.47452C34.7559 1.03739 34.0992 0.894805 33.3812 1.08341C33.3676 1.08697 33.3541 1.09085 33.3406 1.09516C33.3055 1.10637 29.8167 2.2201 28.6575 2.55301C27.9043 2.7691 26.5819 2.77029 25.8276 2.55549C24.6562 2.22172 21.1305 1.10346 21.095 1.09214C21.0817 1.08794 21.0682 1.08406 21.0546 1.0805C20.3363 0.893081 19.6797 1.03642 19.2531 1.47398C18.8264 1.91154 18.6996 2.57177 18.9052 3.28523C18.9075 3.29385 18.9102 3.30236 18.9129 3.31077L21.2885 10.6356C20.4089 11.0331 19.7951 11.9181 19.7951 12.9444C19.7951 14.0171 20.4658 14.9356 21.4096 15.3041C20.9598 16.681 19.1714 18.2751 17.143 20.0822C14.8797 22.0984 12.063 24.6077 9.85981 27.8745C7.26257 31.7253 6 35.8664 6 40.5345C6 44.7442 7.69151 48.6066 10.7629 51.4103C14.0521 54.4129 18.6475 56 24.0521 56H30.9496C36.3543 56 40.9497 54.4129 44.2389 51.4103C47.3104 48.6066 49.0019 44.7441 49.0019 40.5345C49.0019 35.8667 47.7393 31.7255 45.1421 27.8746ZM29.2105 13.8605C29.2099 13.8605 29.2092 13.8605 29.2086 13.8605H25.7936C25.7925 13.8605 25.7913 13.8605 25.7902 13.8605H22.3278C21.8227 13.8605 21.4118 13.4496 21.4118 12.9445C21.4118 12.4399 21.8217 12.0295 22.3261 12.0285C22.3267 12.0285 22.3272 12.0286 22.3276 12.0286C22.3285 12.0286 22.3295 12.0284 22.3303 12.0284H26.6357C26.6365 12.0284 26.6373 12.0286 26.6382 12.0286C26.6392 12.0286 26.6404 12.0284 26.6416 12.0284H28.3604C28.3616 12.0284 28.3626 12.0286 28.3638 12.0286C28.3647 12.0286 28.3654 12.0284 28.3663 12.0284H32.6741C33.1793 12.0284 33.5902 12.4393 33.5902 12.9445C33.5902 13.4496 33.1793 13.8605 32.6741 13.8605H29.2105ZM20.425 2.61692C20.4635 2.61412 20.5297 2.61628 20.6286 2.64042C20.9612 2.74593 24.2268 3.78056 25.3846 4.11045C26.4278 4.40737 28.0611 4.40608 29.1034 4.10711C30.2487 3.77819 33.4779 2.74841 33.8094 2.64268C33.9067 2.61876 33.9724 2.61638 34.0111 2.61886C34.0128 2.66003 34.0083 2.73116 33.9774 2.83786C33.9752 2.84583 33.9729 2.85392 33.9709 2.862L32.0459 10.4119H29.3982L30.0093 7.96746C30.1176 7.53443 29.8543 7.09557 29.4212 6.98726C28.9887 6.87916 28.5493 7.14235 28.441 7.57538L27.7318 10.4119H27.2696L26.5604 7.57538C26.4521 7.14224 26.013 6.87884 25.5802 6.98726C25.1471 7.09547 24.8838 7.53443 24.9921 7.96746L25.6032 10.4119H22.9151L20.4554 2.82654C20.427 2.7247 20.4232 2.65658 20.425 2.61692ZM43.149 50.2165C40.1627 52.9426 35.9442 54.3835 30.9496 54.3835H24.0521C19.0577 54.3835 14.8392 52.9426 11.8529 50.2165C9.12113 47.7229 7.61661 44.2844 7.61661 40.5346C7.61661 30.7341 13.7441 25.2753 18.2183 21.2894C20.6303 19.1406 22.5969 17.3882 23.0413 15.4771H24.655L24.1475 16.9998C24.0063 17.4233 24.2352 17.881 24.6588 18.0222C24.7436 18.0505 24.8297 18.0639 24.9145 18.0639C25.2529 18.0639 25.5683 17.8497 25.6812 17.5111L26.3592 15.4771H28.6427L29.3208 17.5111C29.4337 17.8498 29.749 18.0639 30.0875 18.0639C30.1722 18.0639 30.2584 18.0505 30.3432 18.0222C30.7668 17.881 30.9956 17.4233 30.8545 16.9998L30.347 15.4771H31.9608C32.4052 17.3882 34.3718 19.1407 36.7838 21.2894C41.258 25.2753 47.3855 30.7341 47.3855 40.5346C47.3853 44.2844 45.8809 47.7229 43.149 50.2165Z" fill="#026BFB"/>
<path d="M32.7171 42.2952C32.4322 42.6135 32.0321 42.9185 31.5167 43.2102C31.0148 43.5019 30.4316 43.7406 29.767 43.9263C29.1159 44.1119 28.4174 44.2047 27.6714 44.2047C26.3964 44.2047 25.2435 43.913 24.2126 43.3295C23.1954 42.7328 22.3815 41.8974 21.7712 40.8233C21.1744 39.7492 20.876 38.4894 20.876 37.044C20.876 36.023 21.0591 35.0815 21.4253 34.2195C21.7915 33.3576 22.3002 32.6084 22.9512 31.9719C23.6023 31.3354 24.3483 30.8447 25.1892 30.4999C26.0302 30.1419 26.9186 29.9629 27.8545 29.9629C28.6276 29.9629 29.3465 30.0822 30.0111 30.3209C30.6893 30.5464 31.2793 30.8447 31.7812 31.216C32.2966 31.574 32.6967 31.9586 32.9815 32.3697L31.5167 33.8615C31.0148 33.3576 30.4587 32.9399 29.8483 32.6084C29.238 32.2769 28.5734 32.1111 27.8545 32.1111C27.0407 32.1111 26.2675 32.31 25.5351 32.7078C24.8162 33.1056 24.233 33.6758 23.7854 34.4184C23.3378 35.1478 23.114 36.023 23.114 37.044C23.114 38.1579 23.3378 39.0862 23.7854 39.8287C24.2465 40.5713 24.8501 41.1283 25.5961 41.4996C26.3557 41.8576 27.1695 42.0366 28.0376 42.0366C28.8378 42.0366 29.5432 41.8841 30.1535 41.5791C30.7639 41.2609 31.2522 40.9161 31.6184 40.5448L32.7171 42.2952Z" fill="white" stroke="white" stroke-width="0.1"/>
<path d="M27.501 24.207C20.3995 24.207 14.6221 29.9845 14.6221 37.086C14.6221 44.1875 20.3995 49.965 27.501 49.965C34.6026 49.965 40.38 44.1875 40.38 37.086C40.38 29.9845 34.6026 24.207 27.501 24.207ZM27.501 48.3484C21.2909 48.3484 16.2387 43.2962 16.2387 37.086C16.2387 30.8759 21.2909 25.8236 27.501 25.8236C33.7112 25.8236 38.7634 30.8759 38.7634 37.086C38.7634 43.2962 33.7112 48.3484 27.501 48.3484Z" fill="white" stroke="white" stroke-width="0.3"/>
<rect x="20.6265" y="10.8203" width="13.75" height="3.92856" rx="1.96428" stroke="white" stroke-width="1.8"/>
<path d="M29.4655 6.89258L28.4834 10.8211" stroke="white" stroke-width="1.8" stroke-linecap="round"/>
<path d="M25.5374 6.89258L26.5195 10.8211" stroke="white" stroke-width="1.8" stroke-linecap="round"/>
<path d="M25.5373 14.75L24.5552 17.6964" stroke="white" stroke-width="1.8" stroke-linecap="round"/>
<path d="M29.4656 14.75L30.4478 17.6964" stroke="white" stroke-width="1.8" stroke-linecap="round"/>
</svg>
