<svg width="64" height="54" viewBox="0 0 64 54" fill="none" xmlns="http://www.w3.org/2000/svg">
<g clip-path="url(#clip0_1969_17935)">
<path d="M40.9811 13.6816C39.8595 12.0186 38.4255 10.7411 37.2733 9.71465C36.2406 8.79465 35.3302 7.98311 35.1012 7.28208C35.5817 7.09443 35.9232 6.62692 35.9232 6.08077C35.9232 5.54834 35.5988 5.09032 35.1372 4.89384L36.0901 1.15675C36.192 0.796003 36.1269 0.462797 35.9109 0.241575C35.6936 0.0190349 35.3593 -0.0535539 34.9938 0.042463C34.9868 0.0442736 34.9799 0.0462488 34.9731 0.0484435C34.9552 0.0541496 33.1791 0.621143 32.589 0.790626C32.2055 0.900634 31.5323 0.901238 31.1483 0.791888C30.5519 0.621966 28.757 0.0526682 28.739 0.0469072C28.7321 0.0447674 28.7253 0.0427922 28.7184 0.0409816C28.3527 -0.0544318 28.0184 0.0185411 27.8012 0.2413C27.584 0.464059 27.5195 0.800173 27.6241 1.16339C27.6253 1.16778 27.6267 1.17212 27.6281 1.17639L28.8374 4.90542C28.3897 5.10776 28.0771 5.55833 28.0771 6.08077C28.0771 6.62692 28.4186 7.09449 28.8991 7.28208C28.6701 7.98306 27.7596 8.79459 26.727 9.7146C25.5748 10.741 24.1408 12.0185 23.0192 13.6816C21.697 15.642 21.0542 17.7502 21.0542 20.1267C21.0542 22.2698 21.9153 24.2361 23.4789 25.6635C25.1535 27.1921 27.4929 28 30.2444 28H33.7559C36.5073 28 38.8468 27.1921 40.5213 25.6635C42.085 24.2361 42.9461 22.2698 42.9461 20.1267C42.9461 17.7503 42.3033 15.6421 40.9811 13.6816ZM32.8705 6.54719C32.8701 6.54719 32.8698 6.54719 32.8695 6.54719H31.131C31.1304 6.54719 31.1298 6.54719 31.1292 6.54719H29.3666C29.1094 6.54719 28.9002 6.33799 28.9002 6.08083C28.9002 5.82394 29.1089 5.61501 29.3657 5.61451C29.366 5.61451 29.3662 5.61457 29.3665 5.61457C29.3669 5.61457 29.3674 5.61446 29.3678 5.61446H31.5597C31.5601 5.61446 31.5605 5.61457 31.5609 5.61457C31.5615 5.61457 31.5621 5.61446 31.5627 5.61446H32.4377C32.4383 5.61446 32.4388 5.61457 32.4394 5.61457C32.4399 5.61457 32.4403 5.61446 32.4407 5.61446H34.6338C34.8909 5.61446 35.1002 5.82367 35.1002 6.08083C35.1002 6.33799 34.8909 6.54719 34.6338 6.54719H32.8705ZM28.3978 0.823162C28.4174 0.821736 28.4512 0.822833 28.5015 0.835123C28.6708 0.888838 30.3333 1.41556 30.9228 1.58351C31.4538 1.73466 32.2853 1.73401 32.8159 1.58181C33.399 1.41435 35.043 0.8901 35.2118 0.836276C35.2613 0.824095 35.2947 0.822888 35.3144 0.82415C35.3153 0.845109 35.313 0.881321 35.2973 0.935639C35.2961 0.939699 35.295 0.943814 35.2939 0.947929L34.314 4.79151H32.9661L33.2771 3.54708C33.3323 3.32662 33.1982 3.10321 32.9777 3.04807C32.7576 2.99303 32.5339 3.12702 32.4787 3.34747L32.1177 4.79151H31.8824L31.5214 3.34747C31.4662 3.12696 31.2426 2.99287 31.0223 3.04807C30.8018 3.10315 30.6678 3.32662 30.7229 3.54708L31.034 4.79151H29.6655L28.4133 0.929878C28.3989 0.878029 28.3969 0.843353 28.3978 0.823162ZM39.9665 25.0557C38.4461 26.4435 36.2986 27.1771 33.7559 27.1771H30.2444C27.7017 27.1771 25.5542 26.4435 24.0338 25.0557C22.6431 23.7862 21.8772 22.0358 21.8772 20.1267C21.8772 15.1374 24.9967 12.3584 27.2744 10.3292C28.5024 9.23523 29.5035 8.34309 29.7298 7.3702H30.5513L30.2929 8.14535C30.2211 8.36098 30.3376 8.594 30.5532 8.66587C30.5964 8.68025 30.6403 8.68711 30.6834 8.68711C30.8557 8.68711 31.0163 8.57803 31.0738 8.40564L31.4189 7.3702H32.5814L32.9266 8.40564C32.9841 8.57809 33.1446 8.68711 33.3169 8.68711C33.3601 8.68711 33.4039 8.68025 33.4471 8.66587C33.6628 8.594 33.7792 8.36098 33.7074 8.14535L33.449 7.3702H34.2706C34.4969 8.34309 35.498 9.23528 36.726 10.3292C39.0038 12.3584 42.1232 15.1374 42.1232 20.1267C42.1231 22.0358 41.3572 23.7862 39.9665 25.0557Z" fill="#333333" stroke="#333333" stroke-width="0.3"/>
<path d="M34.6556 21.0244C34.5106 21.1864 34.3069 21.3417 34.0445 21.4902C33.789 21.6387 33.4921 21.7602 33.1538 21.8547C32.8223 21.9492 32.4667 21.9965 32.0869 21.9965C31.4378 21.9965 30.8509 21.848 30.3261 21.5509C29.8082 21.2472 29.3939 20.8219 29.0832 20.275C28.7794 19.7282 28.6274 19.0869 28.6274 18.351C28.6274 17.8312 28.7207 17.3519 28.9071 16.9131C29.0935 16.4743 29.3525 16.0929 29.6839 15.7688C30.0154 15.4448 30.3952 15.195 30.8233 15.0195C31.2514 14.8372 31.7037 14.7461 32.1801 14.7461C32.5737 14.7461 32.9397 14.8069 33.2781 14.9284C33.6233 15.0431 33.9237 15.195 34.1792 15.384C34.4416 15.5663 34.6453 15.7621 34.7903 15.9714L34.0445 16.7308C33.789 16.4743 33.5059 16.2617 33.1952 16.0929C32.8845 15.9241 32.5461 15.8397 32.1801 15.8397C31.7658 15.8397 31.3722 15.941 30.9994 16.1435C30.6334 16.346 30.3365 16.6363 30.1086 17.0144C29.8807 17.3857 29.7668 17.8312 29.7668 18.351C29.7668 18.9181 29.8807 19.3907 30.1086 19.7687C30.3434 20.1468 30.6506 20.4303 31.0304 20.6193C31.4171 20.8016 31.8314 20.8927 32.2734 20.8927C32.6808 20.8927 33.0398 20.8151 33.3506 20.6598C33.6613 20.4978 33.9099 20.3223 34.0963 20.1333L34.6556 21.0244Z" fill="#333333" stroke="#333333" stroke-width="0.1"/>
<path d="M31.9999 11.8145C28.3846 11.8145 25.4434 14.7557 25.4434 18.371C25.4434 21.9864 28.3846 24.9276 31.9999 24.9276C35.6153 24.9276 38.5565 21.9864 38.5565 18.371C38.5565 14.7557 35.6153 11.8145 31.9999 11.8145ZM31.9999 24.1046C28.8384 24.1046 26.2664 21.5326 26.2664 18.371C26.2664 15.2095 28.8384 12.6375 31.9999 12.6375C35.1615 12.6375 37.7335 15.2095 37.7335 18.371C37.7335 21.5326 35.1615 24.1046 31.9999 24.1046Z" fill="#333333" stroke="#333333" stroke-width="0.3"/>
</g>
<path d="M6.13276 40.99V41.914H9.82876C9.78676 42.586 9.68876 43.23 9.52076 43.86L5.51676 44.126L5.67076 45.12L9.21276 44.756C8.59676 46.254 7.44876 47.57 5.51676 48.634L6.17476 49.46C9.98276 47.36 10.9488 44.266 10.9488 40.99H6.13276ZM14.9808 39.478V44.56H13.2868V39.786H12.2088V51.42H13.2868V45.512H14.9808V52.036H16.0728V39.478H14.9808ZM22.7497 40.57H21.6157V42.824C21.6157 45.204 20.0897 47.612 18.2417 48.494L18.9417 49.432C20.4117 48.676 21.6157 47.108 22.1897 45.218C22.7917 47.01 23.9957 48.494 25.4237 49.194L26.1097 48.27C24.2477 47.43 22.7497 45.12 22.7497 42.824V40.57ZM27.4257 39.478V52.064H28.5737V39.478H27.4257ZM35.3294 45.022C37.4014 44.798 39.2214 44.056 39.9914 42.824C40.7474 44.056 42.5814 44.798 44.6534 45.022L45.0034 44.126C42.6514 43.93 40.7474 42.978 40.6214 41.62H44.4994V40.71H40.5654V39.436H39.4174V40.71H35.4834V41.62H39.3474C39.2214 42.978 37.3174 43.93 34.9794 44.126L35.3294 45.022ZM43.1134 49.936C43.1134 50.72 41.9514 51.154 39.9774 51.154C37.9894 51.154 36.8414 50.72 36.8414 49.936C36.8414 49.166 37.9894 48.718 39.9774 48.718C41.9514 48.718 43.1134 49.166 43.1134 49.936ZM45.6614 46.604V45.68H34.3074V46.604H39.4174V47.864C37.0514 47.962 35.6794 48.69 35.6794 49.936C35.6794 51.294 37.2754 52.022 39.9914 52.022C42.6794 52.022 44.2754 51.294 44.2754 49.936C44.2754 48.69 42.9034 47.962 40.5514 47.864V46.604H45.6614ZM53.8503 42.95V43.888H56.3703V48.69H57.5323V39.492H56.3703V42.95H53.8503ZM54.5923 45.904C52.7723 45.26 51.5403 43.692 51.5403 42.054V41.438H54.2983V40.5H47.5923V41.438H50.3923V42.068C50.3923 43.846 49.0903 45.512 47.2283 46.184L47.8303 47.08C49.3003 46.548 50.4483 45.386 50.9943 43.958C51.5403 45.246 52.6183 46.296 54.0183 46.8L54.5923 45.904ZM50.6583 50.818V47.878H49.4963V51.756H57.8823V50.818H50.6583Z" fill="#333333"/>
<defs>
<clipPath id="clip0_1969_17935">
<rect width="28" height="28" fill="white" transform="translate(18)"/>
</clipPath>
</defs>
</svg>
