<svg width="74" height="18" viewBox="0 0 74 18" fill="none" xmlns="http://www.w3.org/2000/svg">
<path d="M7.83019 6.852H6.23419C6.33219 6.264 6.37419 5.634 6.37419 4.99H1.48819V6.152H4.94619C4.73619 8.742 3.47619 10.8 0.872188 12.382L1.69819 13.404C4.06419 11.99 5.39419 10.156 5.98219 8.028H7.83019V10.03H5.75819V11.206H7.83019V15.462H9.17419V3.744H7.83019V6.852ZM10.3782 3.436V16.078H11.7642V3.436H10.3782ZM14.5491 10.492C16.0471 10.016 17.1111 9.022 17.6711 7.762C18.2171 8.924 19.2531 9.834 20.6951 10.268L21.3811 9.148C19.4911 8.574 18.3851 7.202 18.3711 5.704H21.0451V4.528H14.2411V5.704H16.9151C16.9011 7.314 15.7671 8.756 13.8211 9.358L14.5491 10.492ZM18.3711 9.96H16.9291V12.326C15.7531 12.354 14.6471 12.354 13.6951 12.354L13.8771 13.544C16.0331 13.544 18.9171 13.558 21.6051 13.054L21.4791 12.004C20.4851 12.144 19.4351 12.228 18.3711 12.27V9.96ZM25.5251 8.574H23.6631V3.422H22.2211V16.078H23.6631V9.778H25.5251V8.574ZM31.698 9.554H28.716V7.496H31.698V9.554ZM33.112 8.084H35.744V12.802H37.186V3.436H35.744V6.908H33.112V4.276H31.698V6.362H28.716V4.276H27.288V10.73H33.112V8.084ZM30.41 14.664V11.878H28.954V15.84H37.48V14.664H30.41ZM50.4569 5.158H46.0189V3.604H44.5769V5.158H40.1109V6.32H50.4569V5.158ZM42.5469 9.47C42.5469 8.644 43.5549 8.168 45.2769 8.168C47.0129 8.168 48.0209 8.644 48.0209 9.47C48.0209 10.31 47.0129 10.786 45.2769 10.786C43.5549 10.786 42.5469 10.31 42.5469 9.47ZM46.0189 13.516V11.892C48.1889 11.724 49.4909 10.87 49.4909 9.47C49.4909 7.944 47.8669 7.048 45.2769 7.048C42.7009 7.048 41.0769 7.944 41.0769 9.47C41.0769 10.87 42.4069 11.738 44.5769 11.892V13.516H39.5789V14.706H51.0449V13.516H46.0189Z" fill="#026BFB"/>
<path d="M62 3.6V11.7C62 12.058 62.158 12.4014 62.4393 12.6546C62.7206 12.9078 63.1022 13.05 63.5 13.05H69.5C69.8978 13.05 70.2794 12.9078 70.5607 12.6546C70.842 12.4014 71 12.058 71 11.7V5.78835C71 5.6085 70.96 5.43047 70.8825 5.26471C70.805 5.09896 70.6914 4.94881 70.5485 4.8231L68.0623 2.63475C67.782 2.38814 67.4057 2.25004 67.0138 2.25H63.5C63.1022 2.25 62.7206 2.39223 62.4393 2.64541C62.158 2.89858 62 3.24196 62 3.6V3.6Z" stroke="#026BFB" stroke-width="1.5" stroke-linecap="round" stroke-linejoin="round"/>
<path d="M67.6359 15.635C67.3545 15.8881 66.973 16.0304 66.5752 16.0304H60.5752C60.1774 16.0304 59.7958 15.8881 59.5145 15.635C59.2332 15.3818 59.0752 15.0384 59.0752 14.6804V7.25538C59.0752 6.89733 59.2332 6.55396 59.5145 6.30078" stroke="#026BFB" stroke-width="1.5" stroke-linecap="round" stroke-linejoin="round"/>
</svg>
