<svg width="18" height="18" viewBox="0 0 18 18" fill="none" xmlns="http://www.w3.org/2000/svg">
<path d="M9 2C5.13438 2 2 5.13438 2 9C2 12.8656 5.13438 16 9 16C12.8656 16 16 12.8656 16 9C16 5.13438 12.8656 2 9 2ZM9 14.8125C5.79063 14.8125 3.1875 12.2094 3.1875 9C3.1875 5.79063 5.79063 3.1875 9 3.1875C12.2094 3.1875 14.8125 5.79063 14.8125 9C14.8125 12.2094 12.2094 14.8125 9 14.8125Z" fill="#9D9FA3"/>
<path d="M8.25 11.75C8.25 11.9489 8.32902 12.1397 8.46967 12.2803C8.61032 12.421 8.80109 12.5 9 12.5C9.19891 12.5 9.38968 12.421 9.53033 12.2803C9.67098 12.1397 9.75 11.9489 9.75 11.75C9.75 11.5511 9.67098 11.3603 9.53033 11.2197C9.38968 11.079 9.19891 11 9 11C8.80109 11 8.61032 11.079 8.46967 11.2197C8.32902 11.3603 8.25 11.5511 8.25 11.75ZM8.625 10H9.375C9.44375 10 9.5 9.94375 9.5 9.875V5.625C9.5 5.55625 9.44375 5.5 9.375 5.5H8.625C8.55625 5.5 8.5 5.55625 8.5 5.625V9.875C8.5 9.94375 8.55625 10 8.625 10Z" fill="#9D9FA3"/>
</svg>
