<svg width="18" height="18" viewBox="0 0 18 18" fill="none" xmlns="http://www.w3.org/2000/svg">
<path d="M2.25 3.82422H10.7762" stroke="#333333" stroke-linecap="round" stroke-linejoin="round"/>
<path d="M12.2014 5.17422C12.9884 5.17422 13.6264 4.53622 13.6264 3.74922C13.6264 2.96221 12.9884 2.32422 12.2014 2.32422C11.4144 2.32422 10.7764 2.96221 10.7764 3.74922C10.7764 4.53622 11.4144 5.17422 12.2014 5.17422Z" stroke="#333333" stroke-linecap="round" stroke-linejoin="round"/>
<path d="M13.6182 3.82422H15.7497" stroke="#333333" stroke-linecap="round" stroke-linejoin="round"/>
<path d="M2.25 14.3242H10.7762" stroke="#333333" stroke-linecap="round" stroke-linejoin="round"/>
<path d="M12.2014 15.6742C12.9884 15.6742 13.6264 15.0362 13.6264 14.2492C13.6264 13.4622 12.9884 12.8242 12.2014 12.8242C11.4144 12.8242 10.7764 13.4622 10.7764 14.2492C10.7764 15.0362 11.4144 15.6742 12.2014 15.6742Z" stroke="#333333" stroke-linecap="round" stroke-linejoin="round"/>
<path d="M13.6182 14.3242H15.7497" stroke="#333333" stroke-linecap="round" stroke-linejoin="round"/>
<path d="M15.75 9.07422H7.22379" stroke="#333333" stroke-linecap="round" stroke-linejoin="round"/>
<path d="M5.79863 10.4242C5.01163 10.4242 4.37363 9.78622 4.37363 8.99922C4.37363 8.21221 5.01163 7.57422 5.79863 7.57422C6.58564 7.57422 7.22363 8.21221 7.22363 8.99922C7.22363 9.78622 6.58564 10.4242 5.79863 10.4242Z" stroke="#333333" stroke-linecap="round" stroke-linejoin="round"/>
<path d="M4.38135 9.07422H2.2498" stroke="#333333" stroke-linecap="round" stroke-linejoin="round"/>
</svg>
