<svg fill="none" height="64" viewBox="0 0 64 64" width="64" xmlns="http://www.w3.org/2000/svg">
    <path
        d="M47.5098 11.669C47.2965 11.669 47.0831 11.615 46.8964 11.507C41.7753 8.834 37.3478 7.7 32.04 7.7C26.7589 7.7 21.7446 8.969 17.1836 11.507C16.5435 11.858 15.7433 11.615 15.3699 10.967C15.0232 10.319 15.2632 9.482 15.9034 9.131C20.8644 6.404 26.3055 5 32.04 5C37.7212 5 42.6822 6.269 48.1233 9.104C48.7901 9.455 49.0302 10.265 48.6834 10.913C48.4434 11.399 47.9899 11.669 47.5098 11.669ZM9.34203 25.844C9.07531 25.844 8.80859 25.763 8.56854 25.601C7.95508 25.169 7.82172 24.332 8.24847 23.711C10.889 19.931 14.2497 16.961 18.2505 14.882C26.6256 10.508 37.3478 10.481 45.7495 14.855C49.7503 16.934 53.111 19.877 55.7515 23.63C56.1783 24.224 56.0449 25.088 55.4315 25.52C54.818 25.952 53.9912 25.817 53.5644 25.196C51.1639 21.794 48.1233 19.121 44.5226 17.258C36.8677 13.289 27.079 13.289 19.4508 17.285C15.8234 19.175 12.7827 21.875 10.3822 25.277C10.1689 25.655 9.76879 25.844 9.34203 25.844ZM26.0121 58.433C25.6654 58.433 25.3186 58.298 25.0786 58.028C22.7581 55.679 21.5045 54.167 19.7175 50.9C17.8771 47.579 16.9169 43.529 16.9169 39.182C16.9169 31.163 23.6916 24.629 32.0133 24.629C40.335 24.629 47.1098 31.163 47.1098 39.182C47.1098 39.938 46.523 40.532 45.7762 40.532C45.0293 40.532 44.4425 39.938 44.4425 39.182C44.4425 32.648 38.8681 27.329 32.0133 27.329C25.1586 27.329 19.5841 32.648 19.5841 39.182C19.5841 43.07 20.4376 46.661 22.0646 49.577C23.7717 52.682 24.9452 54.005 26.999 56.111C27.5057 56.651 27.5057 57.488 26.999 58.028C26.7056 58.298 26.3588 58.433 26.0121 58.433ZM45.136 53.438C41.962 53.438 39.1615 52.628 36.8677 51.035C32.8935 48.308 30.5197 43.88 30.5197 39.182C30.5197 38.426 31.1065 37.832 31.8533 37.832C32.6001 37.832 33.1869 38.426 33.1869 39.182C33.1869 42.989 35.1073 46.58 38.3613 48.794C40.255 50.09 42.4688 50.711 45.136 50.711C45.7762 50.711 46.843 50.63 47.9099 50.441C48.6301 50.306 49.3235 50.792 49.4569 51.548C49.5903 52.277 49.1102 52.979 48.3633 53.114C46.843 53.411 45.5094 53.438 45.136 53.438ZM39.7749 59C39.6682 59 39.5349 58.973 39.4282 58.946C35.1873 57.758 32.4134 56.165 29.5062 53.276C25.7721 49.523 23.7183 44.528 23.7183 39.182C23.7183 34.808 27.3991 31.244 31.9333 31.244C36.4676 31.244 40.1483 34.808 40.1483 39.182C40.1483 42.071 42.6288 44.42 45.6961 44.42C48.7634 44.42 51.2439 42.071 51.2439 39.182C51.2439 29.003 42.5755 20.741 31.9066 20.741C24.3318 20.741 17.397 25.007 14.2764 31.622C13.2362 33.809 12.7027 36.374 12.7027 39.182C12.7027 41.288 12.8894 44.609 14.4898 48.929C14.7565 49.631 14.4097 50.414 13.7163 50.657C13.0228 50.927 12.2493 50.549 12.0092 49.874C10.7023 46.337 10.0622 42.827 10.0622 39.182C10.0622 35.942 10.6756 32.999 11.8759 30.434C15.4233 22.901 23.2916 18.014 31.9066 18.014C44.0425 18.014 53.9111 27.491 53.9111 39.155C53.9111 43.529 50.2304 47.093 45.6961 47.093C41.1619 47.093 37.4811 43.529 37.4811 39.155C37.4811 36.266 35.0006 33.917 31.9333 33.917C28.866 33.917 26.3855 36.266 26.3855 39.155C26.3855 43.772 28.1459 48.092 31.3732 51.332C33.9071 53.87 36.3342 55.274 40.095 56.327C40.8151 56.516 41.2152 57.272 41.0285 57.974C40.8952 58.595 40.335 59 39.7749 59Z"
        fill="#026BFB" />
</svg>
