<svg width="18" height="18" viewBox="0 0 18 18" fill="none" xmlns="http://www.w3.org/2000/svg">
<path d="M11.8438 11.0003C11.8438 11.603 11.5968 12.1811 11.1573 12.6073C10.7177 13.0335 10.1216 13.273 9.5 13.273C8.8784 13.273 8.28226 13.0335 7.84272 12.6073C7.40318 12.1811 7.15625 11.603 7.15625 11.0003C7.15625 10.3975 7.40318 9.81942 7.84272 9.39321C8.28226 8.96699 8.8784 8.72754 9.5 8.72754C10.1216 8.72754 10.7177 8.96699 11.1573 9.39321C11.5968 9.81942 11.8438 10.3975 11.8438 11.0003Z" fill="#B4B4B8"/>
<path d="M2 11C2 11 4.8125 6 9.5 6C14.1875 6 17 11 17 11C17 11 14.1875 16 9.5 16C4.8125 16 2 11 2 11ZM9.5 14.1818C10.3702 14.1818 11.2048 13.8466 11.8202 13.2499C12.4355 12.6532 12.7812 11.8439 12.7812 11C12.7812 10.1561 12.4355 9.34682 11.8202 8.75012C11.2048 8.15341 10.3702 7.81818 9.5 7.81818C8.62976 7.81818 7.79516 8.15341 7.17981 8.75012C6.56445 9.34682 6.21875 10.1561 6.21875 11C6.21875 11.8439 6.56445 12.6532 7.17981 13.2499C7.79516 13.8466 8.62976 14.1818 9.5 14.1818Z" fill="#B4B4B8"/>
</svg>
