<svg width="24" height="24" viewBox="0 0 24 24" fill="none" xmlns="http://www.w3.org/2000/svg">
<path d="M4.14213 21.5V15.4134C4.14213 14.7397 3.596 14.1935 2.9223 14.1935C1.83876 14.1935 1.29307 12.8863 2.05505 12.1159L10.989 3.08366C11.5782 2.488 12.5411 2.49044 13.1273 3.08908L21.9598 12.1099C22.7196 12.8859 22.1698 14.1935 21.0838 14.1935C20.4068 14.1935 19.8579 14.7424 19.8579 15.4195V21.5C19.8579 22.3284 19.1863 23 18.3579 23H16.1193C15.2909 23 14.6193 22.3284 14.6193 21.5V17.7874C14.6193 16.959 13.9477 16.2874 13.1193 16.2874H10.8807C10.0523 16.2874 9.38071 16.959 9.38071 17.7874V21.5C9.38071 22.3284 8.70914 23 7.88071 23H5.64213C4.8137 23 4.14213 22.3284 4.14213 21.5Z" fill="#333333" stroke="#333333"/>
</svg>
