<svg width="56" height="56" viewBox="0 0 56 56" fill="none" xmlns="http://www.w3.org/2000/svg">
<path d="M3.00144 27.9952C3.0025 22.4912 4.81988 17.1414 8.17164 12.7757C11.5234 8.41 16.2222 5.27242 21.5391 3.84968C26.856 2.42694 32.4938 2.79858 37.5779 4.90694C42.6621 7.0153 46.9084 10.7425 49.658 15.5104C52.4077 20.2783 53.5071 25.8204 52.7857 31.2769C52.0643 36.7333 49.5623 41.7992 45.668 45.6887C41.7737 49.5782 36.7047 52.0738 31.2473 52.7884C25.7899 53.503 20.2492 52.3966 15.4848 49.641L5.7431 52.891C5.3832 53.0111 4.99731 53.0307 4.62708 52.9476C4.25685 52.8645 3.91635 52.6819 3.64232 52.4195C3.36829 52.157 3.17114 51.8247 3.07215 51.4584C2.97316 51.0921 2.97608 50.7057 3.08061 50.341L6.04727 39.9618C4.04317 36.292 2.99568 32.1765 3.00144 27.9952ZM31.1264 39.4535C31.1264 38.6247 30.7972 37.8298 30.2111 37.2438C29.6251 36.6577 28.8302 36.3285 28.0014 36.3285C27.1726 36.3285 26.3778 36.6577 25.7917 37.2438C25.2057 37.8298 24.8764 38.6247 24.8764 39.4535C24.8764 40.2823 25.2057 41.0771 25.7917 41.6632C26.3778 42.2492 27.1726 42.5785 28.0014 42.5785C28.8302 42.5785 29.6251 42.2492 30.2111 41.6632C30.7972 41.0771 31.1264 40.2823 31.1264 39.4535ZM30.0514 15.1202C29.9587 14.6079 29.6775 14.1489 29.2632 13.8336C28.849 13.5183 28.3316 13.3695 27.8132 13.4165C27.2947 13.4636 26.8126 13.703 26.4619 14.0877C26.1111 14.4725 25.9171 14.9746 25.9181 15.4952V30.0785L25.9514 30.4535C26.0442 30.9658 26.3254 31.4248 26.7396 31.7401C27.1539 32.0554 27.6712 32.2042 28.1897 32.1571C28.7081 32.1101 29.1902 31.8706 29.541 31.4859C29.8917 31.1012 30.0857 30.5991 30.0847 30.0785V15.4952L30.0514 15.1202Z" fill="#026BFB"/>
<circle cx="28" cy="28" r="25.25" stroke="#026BFB" stroke-width="2.5"/>
</svg>
