<svg width="24" height="24" viewBox="0 0 24 24" fill="none" xmlns="http://www.w3.org/2000/svg">
<path d="M22 22V19.5C22 18.1739 21.4381 16.9021 20.4379 15.9645C19.4377 15.0268 18.0812 14.5 16.6667 14.5H7.33333C5.91885 14.5 4.56229 15.0268 3.5621 15.9645C2.5619 16.9021 2 18.1739 2 19.5V22" fill="#333333"/>
<path d="M22 22V19.5C22 18.1739 21.4381 16.9021 20.4379 15.9645C19.4377 15.0268 18.0812 14.5 16.6667 14.5H7.33333C5.91885 14.5 4.56229 15.0268 3.5621 15.9645C2.5619 16.9021 2 18.1739 2 19.5V22H22Z" stroke="#333333" stroke-linecap="round" stroke-linejoin="round"/>
<path d="M11.6875 11.375C14.2763 11.375 16.375 9.27633 16.375 6.6875C16.375 4.09866 14.2763 2 11.6875 2C9.09866 2 7 4.09866 7 6.6875C7 9.27633 9.09866 11.375 11.6875 11.375Z" fill="#333333" stroke="#333333" stroke-linecap="round" stroke-linejoin="round"/>
</svg>
