<svg width="180" height="48" viewBox="0 0 180 48" fill="none" xmlns="http://www.w3.org/2000/svg">
<path d="M43.5149 13.9643C42.8903 12.7696 42.0857 11.5945 41.0399 10.503C40.9301 10.3874 40.8167 10.2754 40.7051 10.1652C36.4247 5.97318 30.6611 5.42563 27.4121 5.11807C26.6597 5.04696 24.9749 4.91896 22.7951 5.08607C19.1141 5.36696 12.9041 5.84163 8.41493 10.4532C4.02473 14.9616 3.58013 20.9403 3.57653 23.1803C3.57293 24.4994 3.55673 26.839 4.14353 29.5039C4.43873 30.8496 4.89053 32.2772 5.57273 33.6994C5.63213 33.8239 5.69693 33.9501 5.76173 34.0745L8.98193 29.4914C9.30953 29.0221 9.96833 28.9207 10.4255 29.2692L14.1443 32.1083C14.6357 32.4834 15.3503 32.3341 15.6455 31.7936L20.4263 23.0381C20.8079 22.3376 21.7781 22.2203 22.3199 22.8087L27.3653 26.6683C27.9089 27.2585 28.8791 27.1394 29.2607 26.4372L34.0361 19.4452C34.3475 18.8692 35.0837 18.663 35.6543 18.9918L38.5793 20.407C39.0725 20.6914 39.7025 20.5812 40.0679 20.1456L44.1611 15.3563C43.9721 14.8923 43.7579 14.4265 43.5149 13.9643Z" fill="url(#paint0_linear)"/>
<path d="M45.6659 24.014C45.6551 22.4175 45.6263 18.9278 44.1611 15.3562L40.0679 20.1455C39.7025 20.5793 39.0743 20.6895 38.5793 20.4069L35.6543 18.9918C35.0819 18.6629 34.3475 18.8673 34.0361 19.4451L29.2607 26.4371C28.8791 27.1411 27.9089 27.2584 27.3653 26.6682L22.3199 22.8086C21.7781 22.2202 20.8097 22.3375 20.4263 23.038L15.6455 31.7935C15.3503 32.334 14.6357 32.4833 14.1443 32.1082L10.4255 29.2691C9.96832 28.9206 9.30952 29.022 8.98192 29.4913L5.76172 34.0744C6.09292 34.7251 6.47092 35.374 6.91012 36.0104C11.1347 42.1242 18.8819 42.6131 22.0751 42.8993C22.6169 42.9473 24.2045 43.0735 26.3141 42.9295C30.0905 42.6717 37.0835 42.1935 41.6267 37.0504C45.7253 32.414 45.6821 26.4175 45.6659 24.014Z" fill="url(#paint1_linear)"/>
<path d="M32.0202 24.4123C19.4724 34.4461 22.6638 35.5483 19.5804 19.9394C19.449 19.1981 20.178 18.5954 20.8926 18.8514L31.7232 22.7447C32.4378 23.0025 32.6034 23.9287 32.0202 24.4123Z" fill="white"/>
<path d="M72.1297 26.9491C72.1297 28.3873 71.9227 29.6869 71.5087 30.846C71.0947 32.0051 70.5133 33.0024 69.7663 33.838C69.0175 34.6735 68.1265 35.3171 67.0897 35.7687C66.0547 36.2202 64.9261 36.446 63.7057 36.446C62.4853 36.446 61.3585 36.2202 60.3217 35.7687C59.2867 35.3153 58.3939 34.6718 57.6469 33.838C56.8981 33.0024 56.3185 32.0051 55.9027 30.846C55.4887 29.6869 55.2817 28.3873 55.2817 26.9491C55.2817 25.534 55.4887 24.2415 55.9027 23.07C56.3167 21.8984 56.8981 20.8958 57.6469 20.0602C58.3939 19.2247 59.2867 18.5811 60.3217 18.1296C61.3567 17.6762 62.4853 17.4504 63.7057 17.4504C64.9261 17.4504 66.0529 17.6762 67.0897 18.1296C68.1247 18.5811 69.0175 19.2247 69.7663 20.0602C70.5133 20.8958 71.0947 21.8984 71.5087 23.07C71.9227 24.2398 72.1297 25.534 72.1297 26.9491ZM68.7817 26.9491C68.7817 24.9082 68.3263 23.2904 67.4173 22.0958C66.5083 20.9011 65.2717 20.3038 63.7057 20.3038C62.1397 20.3038 60.9031 20.9011 59.9941 22.0958C59.0851 23.2904 58.6297 24.9082 58.6297 26.9491C58.6297 28.99 59.0833 30.6078 59.9941 31.8024C60.9031 32.9971 62.1397 33.5944 63.7057 33.5944C65.2699 33.5944 66.5083 32.9971 67.4173 31.8024C68.3263 30.6078 68.7817 28.99 68.7817 26.9491Z" fill="#040000"/>
<path d="M90.5996 35.4719C89.8634 35.6585 88.8914 35.8541 87.6818 36.0639C86.474 36.2737 85.0754 36.3768 83.4878 36.3768C82.1072 36.3768 80.9444 36.1741 80.0012 35.7688C79.058 35.3634 78.2984 34.7892 77.7224 34.0461C77.1464 33.3048 76.7324 32.4283 76.4804 31.4203C76.2266 30.4105 76.1006 29.2923 76.1006 28.0621V17.9021H79.3118V27.3652C79.3118 29.5697 79.6574 31.1465 80.3468 32.0977C81.038 33.0488 82.199 33.5252 83.8334 33.5252C84.179 33.5252 84.5354 33.5128 84.9026 33.4897C85.2698 33.4665 85.6154 33.4381 85.9376 33.4025C86.2598 33.367 86.5532 33.3332 86.8178 33.2977C87.0824 33.2639 87.2714 33.223 87.3884 33.1768V17.9021H90.5996V35.4719Z" fill="#040000"/>
<path d="M102.408 17.5198C102.683 17.5198 103 17.5376 103.356 17.5731C103.713 17.6069 104.064 17.6549 104.409 17.7118C104.755 17.7704 105.07 17.8273 105.358 17.886C105.646 17.9447 105.858 17.9962 105.997 18.0424L105.444 20.8602C105.191 20.7678 104.771 20.6576 104.184 20.5296C103.598 20.4033 102.843 20.3393 101.924 20.3393C101.324 20.3393 100.732 20.4033 100.145 20.5296C99.5583 20.6576 99.1731 20.7447 98.9895 20.7909V35.9962H95.7783V18.67C96.5379 18.3927 97.4811 18.1313 98.6097 17.8878C99.7365 17.6407 101.004 17.5198 102.408 17.5198Z" fill="#040000"/>
<path d="M111.762 17.9021H118.563V20.615H111.762V28.9652C111.762 29.8701 111.831 30.6167 111.969 31.2087C112.108 31.8007 112.315 32.2647 112.59 32.6007C112.867 32.9367 113.211 33.175 113.625 33.3136C114.039 33.4523 114.523 33.5234 115.076 33.5234C116.043 33.5234 116.818 33.4132 117.407 33.1927C117.994 32.9723 118.402 32.8159 118.633 32.7234L119.254 35.4025C118.932 35.5661 118.368 35.7687 117.562 36.0123C116.755 36.2559 115.836 36.3767 114.801 36.3767C113.58 36.3767 112.574 36.2203 111.78 35.9074C110.986 35.5945 110.347 35.1252 109.865 34.4976C109.383 33.8719 109.042 33.1003 108.846 32.1847C108.65 31.2692 108.553 30.2079 108.553 29.0007V12.8567L111.764 12.3003V17.9021H111.762Z" fill="#040000"/>
<path d="M136.584 35.4719C135.848 35.6585 134.876 35.8541 133.666 36.0639C132.458 36.2737 131.06 36.3768 129.472 36.3768C128.092 36.3768 126.929 36.1741 125.986 35.7688C125.042 35.3634 124.283 34.7892 123.707 34.0461C123.131 33.3048 122.717 32.4283 122.465 31.4203C122.211 30.4105 122.085 29.2923 122.085 28.0621V17.9021H125.296V27.3652C125.296 29.5697 125.642 31.1465 126.331 32.0977C127.022 33.0488 128.183 33.5252 129.818 33.5252C130.163 33.5252 130.52 33.5128 130.887 33.4897C131.254 33.4665 131.6 33.4381 131.922 33.4025C132.244 33.367 132.538 33.3332 132.802 33.2977C133.067 33.2639 133.256 33.223 133.373 33.1768V17.9021H136.584V35.4719Z" fill="#040000"/>
<path d="M144.972 18.702C145.363 18.446 145.957 18.1794 146.75 17.902C147.544 17.6229 148.459 17.4842 149.495 17.4842C150.784 17.4842 151.929 17.7154 152.93 18.1794C153.931 18.6434 154.777 19.2922 155.468 20.1278C156.159 20.9634 156.681 21.9607 157.039 23.1198C157.396 24.2807 157.574 25.5554 157.574 26.9474C157.574 28.4087 157.361 29.7242 156.935 30.8958C156.508 32.0674 155.905 33.0594 155.122 33.87C154.339 34.6825 153.396 35.3082 152.291 35.7491C151.186 36.19 149.944 36.4105 148.563 36.4105C147.067 36.4105 145.744 36.3056 144.592 36.0976C143.442 35.8878 142.497 35.6798 141.761 35.4718V9.55181L144.972 8.99536V18.702ZM144.972 33.1767C145.294 33.2691 145.748 33.3562 146.336 33.438C146.923 33.5198 147.654 33.5589 148.529 33.5589C150.255 33.5589 151.636 32.9847 152.672 31.8362C153.707 30.6878 154.226 29.0594 154.226 26.9474C154.226 26.0194 154.134 25.15 153.949 24.3376C153.765 23.5269 153.466 22.8247 153.05 22.2327C152.636 21.6407 152.102 21.1785 151.445 20.8407C150.79 20.5047 149.999 20.3358 149.08 20.3358C148.205 20.3358 147.398 20.4869 146.662 20.7874C145.926 21.0896 145.361 21.4025 144.97 21.726V33.1767H144.972Z" fill="#040000"/>
<path d="M160.749 26.9829C160.749 25.3829 160.979 23.9856 161.44 22.7909C161.901 21.5962 162.509 20.606 163.269 19.8167C164.029 19.0291 164.903 18.4371 165.893 18.0424C166.883 17.6478 167.897 17.4504 168.932 17.4504C171.347 17.4504 173.201 18.2113 174.49 19.7296C175.779 21.2496 176.423 23.5624 176.423 26.67C176.423 26.8087 176.423 26.99 176.423 27.2104C176.423 27.4309 176.411 27.6336 176.389 27.8184H164.099C164.237 29.6976 164.777 31.1233 165.721 32.0976C166.664 33.0718 168.138 33.5589 170.14 33.5589C171.266 33.5589 172.217 33.4611 172.987 33.2638C173.758 33.0664 174.339 32.8762 174.731 32.6896L175.18 35.4024C174.787 35.6122 174.103 35.8327 173.126 36.0638C172.147 36.2949 171.038 36.4122 169.794 36.4122C168.228 36.4122 166.876 36.174 165.737 35.6993C164.597 35.2247 163.66 34.5687 162.923 33.7331C162.187 32.8976 161.64 31.9073 161.284 30.7589C160.927 29.6104 160.749 28.3518 160.749 26.9829ZM173.074 25.2087C173.097 23.7473 172.733 22.5473 171.986 21.6087C171.238 20.6682 170.208 20.1989 168.896 20.1989C168.16 20.1989 167.51 20.3447 166.945 20.6344C166.381 20.9242 165.902 21.3011 165.512 21.7651C165.119 22.2291 164.815 22.7624 164.597 23.3651C164.378 23.9695 164.236 24.5829 164.165 25.2087H173.074Z" fill="#040000"/>
<defs>
<linearGradient id="paint0_linear" x1="9.91667" y1="8.96634" x2="31.1982" y2="30.5138" gradientUnits="userSpaceOnUse">
<stop offset="1.24601e-07" stop-color="#036BFC"/>
<stop offset="0.0659" stop-color="#0260F3"/>
<stop offset="0.2266" stop-color="#014CE2"/>
<stop offset="0.4095" stop-color="#013ED5"/>
<stop offset="0.6312" stop-color="#0036CE"/>
<stop offset="1" stop-color="#0033CC"/>
</linearGradient>
<linearGradient id="paint1_linear" x1="5.57329" y1="29.176" x2="45.6682" y2="29.176" gradientUnits="userSpaceOnUse">
<stop offset="4.98403e-07" stop-color="#03A3FC"/>
<stop offset="0.5646" stop-color="#0393FC"/>
<stop offset="1" stop-color="#038DFC"/>
</linearGradient>
</defs>
</svg>
