<svg width="64" height="64" viewBox="0 0 64 64" fill="none" xmlns="http://www.w3.org/2000/svg">
<path d="M46.0363 30.1633L45.9117 30.5H46.2707H54.6249C57.5884 30.5 59.9999 32.9114 59.9999 35.875C59.9999 37.2503 59.4809 38.5062 58.6279 39.4582L58.4784 39.625L58.6279 39.7918C59.4809 40.7438 59.9999 41.9997 59.9999 43.375C59.9999 45.8489 58.3188 47.939 56.0385 48.5614L55.7687 48.6351L55.8721 48.895C56.1157 49.5078 56.2499 50.1757 56.2499 50.875C56.2499 53.3489 54.5688 55.439 52.2885 56.0614L52.0187 56.1351L52.1221 56.395C52.3657 57.0078 52.4999 57.6757 52.4999 58.375C52.4999 61.3386 50.0884 63.75 47.1249 63.75H35.8749C35.7421 63.75 35.6097 63.7337 35.4807 63.7014L22.3258 60.4127L22.1221 60.3618L22.0368 60.5535C21.1985 62.4354 19.3123 63.75 17.1249 63.75H9.37487C8.47745 63.75 7.74987 63.0224 7.74987 62.125V60.25V60H7.49987H1.87487C0.97744 60 0.249892 59.2724 0.25 58.375V32.125C0.25 31.2276 0.977571 30.5 1.875 30.5H1.87992H1.88522H1.89088H1.89692H1.90332H1.91008H1.91721H1.92471H1.93256H1.94078H1.94935H1.95828H1.96757H1.9772H1.9872H1.99754H2.00823H2.01927H2.03066H2.04239H2.05447H2.06689H2.07965H2.09275H2.10619H2.11996H2.13407H2.14851H2.16329H2.17839H2.19383H2.20959H2.22568H2.24209H2.25883H2.27589H2.29327H2.31097H2.32899H2.34732H2.36597H2.38493H2.4042H2.42378H2.44367H2.46387H2.48438H2.50519H2.5263H2.54772H2.56943H2.59144H2.61376H2.63636H2.65926H2.68246H2.70594H2.72972H2.75378H2.77813H2.80277H2.82769H2.85289H2.87837H2.90414H2.93018H2.9565H2.9831H3.00996H3.03711H3.06452H3.0922H3.12015H3.14837H3.17685H3.20559H3.2346H3.26387H3.2934H3.32319H3.35323H3.38353H3.41408H3.44488H3.47594H3.50724H3.53879H3.57059H3.60263H3.63492H3.66744H3.70021H3.73322H3.76646H3.79994H3.83366H3.86761H3.90179H3.9362H3.97084H4.00571H4.0408H4.07612H4.11166H4.14742H4.1834H4.2196H4.25602H4.29265H4.3295H4.36656H4.40383H4.44132H4.47901H4.51691H4.55501H4.59332H4.63183H4.67054H4.70945H4.74856H4.78786H4.82736H4.86706H4.90695H4.94703H4.98729H5.02775H5.06839H5.10922H5.15023H5.19143H5.2328H5.27436H5.31609H5.358H5.40008H5.44234H5.48477H5.52737H5.57013H5.61307H5.65617H5.69944H5.74287H5.78647H5.83022H5.87413H5.9182H5.96243H6.00681H6.05134H6.09603H6.14086H6.18585H6.23098H6.27626H6.32168H6.36724H6.41295H6.4588H6.50478H6.5509H6.59716H6.64355H6.69008H6.73673H6.78352H6.83043H6.87748H6.92464H6.97193H7.01935H7.06688H7.11454H7.16231H7.2102H7.2582H7.30632H7.35455H7.40289H7.45135H7.49991H7.54857H7.59734H7.64622H7.69519H7.74427H7.79345H7.84272H7.8921H7.94156H7.99112H8.04077H8.09052H8.14035H8.19027H8.24027H8.29036H8.34053H8.39079H8.44112H8.49154H8.54203H8.5926H8.64324H8.69396H8.74474H8.7956H8.84653H8.89752H8.94858H8.9997H9.05089H9.10214H9.15345H9.20481H9.25624H9.30771H9.35925H9.41083H9.46247H9.51416H9.56589H9.61768H9.6695H9.72138H9.77329H9.82524H9.87724H9.92927H9.98134H10.0334H10.0856H10.1378H10.19H10.2422H10.2945H10.3467H10.399H10.4514H10.5037H10.5561H10.6085H10.6609H10.7134H10.7658H10.8183H10.8707H10.9232H10.9757H11.0282H11.0807H11.1332H11.1857H11.2382H11.2908H11.3433H11.3958H11.4483H11.5008H11.5533H11.6058H11.6583H11.7107H11.7632H11.8156H11.868H11.9204H11.9728H12.0252H12.0775H12.1299H12.1821H12.2344H12.2867H12.3389H12.3911H12.4432H12.4953H12.5474H12.5995H12.6515H12.7035H12.7554H12.8073H12.8591H12.9109H12.9627H13.0144H13.0661H13.1177H13.1692H13.2207H13.2722H13.3236H13.3749H13.4262H13.4774H13.5285H13.5796H13.6306H13.6816H13.7325H13.7833H13.8341H13.8847H13.9353H13.9859H14.0363H14.0867H14.137H14.1872H14.2373H14.2873H14.3373H14.3872H14.437H14.4866H14.5362H14.5858H14.6352H14.6845H14.7337H14.7828H14.8319H14.8808H14.9296H14.9783H15.0269H15.0754H15.1238H15.1721H15.2202H15.2683H15.3162H15.3641H15.4118H15.4594H15.5068H15.5542H15.6014H15.6485H15.6955H15.7423H15.789H15.8356H15.882H15.9284H15.9745H16.0206H16.0665H16.1123H16.1579H16.2034H16.2487H16.2939H16.339H16.3839H16.4286H16.4732H16.5177H16.562H16.6061H16.6501H16.6939H16.7376H16.7811H16.8244H16.8676H16.9106H16.9534H16.9961H17.0386H17.081H17.1231H17.1651H17.2069H17.2485H17.29H17.3313H17.3724H17.4133H17.454H17.4945H17.5349H17.5751H17.615H17.6548H17.6944H17.7338H17.773H17.812H17.8508H17.8894H17.9278H17.966H18.004H18.0417H18.0793H18.1167H18.1538H18.1908H18.2275H18.264H18.3003H18.3364H18.3722H18.4079H18.4433H18.4785H18.5135H18.5482H18.5827H18.617H18.651H18.6849H18.7184H18.7518H18.7849H18.8178H18.8504H18.8828H18.915H18.9469H18.9785H19.0099H19.0411H19.072H19.1027H19.1331H19.1632H19.1931H19.2228H19.2522H19.2813H19.3101H19.3387H19.3671H19.3951H19.4229H19.4505H19.4777H19.5047H19.5314H19.5579H19.584H19.6099H19.6355H19.6609H19.6859H19.7107H19.7352H19.7593H19.7832H19.8069H19.8302H19.8532H19.8759H19.8984H19.9205H19.9424H19.9639H19.9852H20.0061H20.0268H20.0471H20.0671H20.0868H20.1062H20.1253H20.1441H20.1626H20.1808H20.1986H20.2161H20.2333H20.2502H20.2668H20.283H20.2989H20.3145H20.3297H20.3446H20.3592H20.3735H20.3874H20.401H20.4142H20.4272H20.4397H20.452H20.4638H20.4754H20.4866H20.4974H20.5079H20.5181H20.5279H20.5373H20.5464H20.5551H20.5635H20.5715H20.5791H20.5864H20.5934H20.5999H20.6061H20.612H20.6174H20.6225H20.6564L20.6891 30.491C22.0221 30.1224 28.7751 28.2166 32.2209 26.4892L32.114 26.2759L32.2209 26.4892C33.0306 26.0833 33.7912 25.3351 34.4743 24.3927C35.1595 23.4474 35.7785 22.2903 36.2992 21.0442C37.3394 18.555 37.9999 15.6801 37.9999 13.375C37.9999 12.4776 38.7274 11.75 39.6249 11.75C42.1118 11.75 44.4691 12.8303 46.0926 14.714L46.282 14.5507L46.0926 14.714C47.7211 16.6033 48.4439 19.1031 48.0756 21.573L48.3229 21.6099L48.0756 21.573C47.7012 24.0851 47.0623 27.389 46.0363 30.1633ZM7.49975 56.75H7.74975V56.5V34V33.75H7.49975H3.74975H3.49975V34V56.5V56.75H3.74975H7.49975ZM10.9997 60.25V60.5H11.2497H17.1247C18.2967 60.5 19.2497 59.5469 19.2497 58.375V34V33.75H18.9997H11.2497H10.9997V34V60.25ZM36.0451 60.4925L36.075 60.5H36.1057H47.1249C48.2968 60.5 49.2499 59.5469 49.2499 58.375C49.2499 57.2031 48.2968 56.25 47.1249 56.25H43.3749C42.4774 56.25 41.7499 55.5224 41.7499 54.625C41.7499 53.7276 42.4774 53 43.3749 53H43.3796H43.3844H43.3894H43.3944H43.3996H43.4049H43.4103H43.4158H43.4215H43.4272H43.4331H43.4391H43.4451H43.4513H43.4576H43.4641H43.4706H43.4772H43.484H43.4908H43.4978H43.5049H43.512H43.5193H43.5267H43.5342H43.5418H43.5495H43.5573H43.5652H43.5732H43.5814H43.5896H43.5979H43.6063H43.6149H43.6235H43.6322H43.641H43.65H43.659H43.6681H43.6773H43.6866H43.6961H43.7056H43.7152H43.7249H43.7347H43.7446H43.7546H43.7646H43.7748H43.7851H43.7954H43.8059H43.8164H43.8271H43.8378H43.8486H43.8595H43.8705H43.8816H43.8927H43.904H43.9154H43.9268H43.9383H43.9499H43.9616H43.9734H43.9852H43.9972H44.0092H44.0213H44.0335H44.0458H44.0581H44.0706H44.0831H44.0957H44.1084H44.1211H44.134H44.1469H44.1599H44.173H44.1861H44.1994H44.2127H44.226H44.2395H44.253H44.2666H44.2803H44.2941H44.3079H44.3218H44.3358H44.3498H44.3639H44.3781H44.3924H44.4067H44.4211H44.4355H44.4501H44.4647H44.4793H44.4941H44.5089H44.5238H44.5387H44.5537H44.5688H44.5839H44.5991H44.6143H44.6297H44.645H44.6605H44.676H44.6916H44.7072H44.7229H44.7386H44.7544H44.7703H44.7862H44.8022H44.8183H44.8344H44.8505H44.8667H44.883H44.8993H44.9157H44.9321H44.9486H44.9652H44.9817H44.9984H45.0151H45.0318H45.0486H45.0655H45.0824H45.0993H45.1163H45.1334H45.1505H45.1676H45.1848H45.2021H45.2194H45.2367H45.2541H45.2715H45.289H45.3065H45.3241H45.3417H45.3593H45.377H45.3947H45.4125H45.4303H45.4482H45.466H45.484H45.5019H45.52H45.538H45.5561H45.5742H45.5924H45.6106H45.6288H45.6471H45.6654H45.6837H45.7021H45.7205H45.739H45.7574H45.7759H45.7945H45.8131H45.8317H45.8503H45.8689H45.8876H45.9064H45.9251H45.9439H45.9627H45.9815H46.0004H46.0193H46.0382H46.0571H46.0761H46.0951H46.1141H46.1331H46.1522H46.1713H46.1904H46.2095H46.2287H46.2478H46.267H46.2862H46.3055H46.3247H46.344H46.3633H46.3826H46.4019H46.4212H46.4406H46.46H46.4794H46.4988H46.5182H46.5376H46.5571H46.5765H46.596H46.6155H46.635H46.6545H46.674H46.6935H46.7131H46.7326H46.7522H46.7717H46.7913H46.8109H46.8305H46.8501H46.8697H46.8893H46.9089H46.9285H46.9481H46.9678H46.9874H47.007H47.0267H47.0463H47.0659H47.0856H47.1052H47.1249H47.1445H47.1642H47.1838H47.2034H47.2231H47.2427H47.2624H47.282H47.3016H47.3212H47.3409H47.3605H47.3801H47.3997H47.4193H47.4389H47.4584H47.478H47.4976H47.5171H47.5367H47.5562H47.5758H47.5953H47.6148H47.6343H47.6538H47.6732H47.6927H47.7121H47.7316H47.751H47.7704H47.7898H47.8091H47.8285H47.8478H47.8672H47.8865H47.9058H47.925H47.9443H47.9635H47.9827H48.0019H48.0211H48.0402H48.0593H48.0785H48.0975H48.1166H48.1356H48.1547H48.1736H48.1926H48.2115H48.2305H48.2493H48.2682H48.287H48.3058H48.3246H48.3434H48.3621H48.3808H48.3995H48.4181H48.4367H48.4553H48.4738H48.4923H48.5108H48.5292H48.5476H48.566H48.5843H48.6027H48.6209H48.6392H48.6574H48.6755H48.6936H48.7117H48.7298H48.7478H48.7658H48.7837H48.8016H48.8194H48.8373H48.855H48.8728H48.8904H48.9081H48.9257H48.9432H48.9608H48.9782H48.9957H49.013H49.0304H49.0477H49.0649H49.0821H49.0992H49.1163H49.1334H49.1504H49.1673H49.1842H49.2011H49.2179H49.2346H49.2513H49.268H49.2846H49.3011H49.3176H49.334H49.3504H49.3667H49.383H49.3992H49.4154H49.4315H49.4475H49.4635H49.4794H49.4953H49.5111H49.5269H49.5426H49.5582H49.5737H49.5893H49.6047H49.6201H49.6354H49.6507H49.6659H49.681H49.6961H49.7111H49.726H49.7409H49.7557H49.7704H49.7851H49.7997H49.8142H49.8287H49.8431H49.8574H49.8716H49.8858H49.8999H49.914H49.928H49.9419H49.9557H49.9694H49.9831H49.9967H50.0103H50.0237H50.0371H50.0504H50.0636H50.0768H50.0898H50.1028H50.1158H50.1286H50.1414H50.154H50.1666H50.1792H50.1916H50.204H50.2162H50.2284H50.2405H50.2526H50.2645H50.2764H50.2881H50.2998H50.3114H50.323H50.3344H50.3457H50.357H50.3682H50.3792H50.3902H50.4011H50.412H50.4227H50.4333H50.4439H50.4543H50.4647H50.4749H50.4851H50.4952H50.5052H50.5151H50.5249H50.5346H50.5442H50.5537H50.5631H50.5724H50.5816H50.5908H50.5998H50.6087H50.6175H50.6263H50.6349H50.6434H50.6518H50.6602H50.6684H50.6765H50.6845H50.6924H50.7002H50.7079H50.7155H50.723H50.7304H50.7377H50.7449H50.752H50.7589H50.7658H50.7725H50.7791H50.7857H50.7921H50.7984H50.8046H50.8107H50.8167H50.8225H50.8283H50.8339H50.8394H50.8448H50.8501H50.8553H50.8604H50.8653H50.8702H50.8749C52.0468 53 52.9999 52.0469 52.9999 50.875C52.9999 49.7031 52.0468 48.75 50.8749 48.75H43.3749C42.4774 48.75 41.7499 48.0224 41.7499 47.125C41.7499 46.2276 42.4774 45.5 43.3749 45.5H43.3817H43.3888H43.396H43.4033H43.4109H43.4186H43.4264H43.4345H43.4427H43.4511H43.4596H43.4683H43.4772H43.4862H43.4954H43.5048H43.5143H43.524H43.5338H43.5438H43.554H43.5643H43.5748H43.5854H43.5962H43.6072H43.6183H43.6295H43.641H43.6525H43.6642H43.6761H43.6881H43.7003H43.7126H43.7251H43.7377H43.7505H43.7634H43.7764H43.7896H43.803H43.8165H43.8301H43.8439H43.8578H43.8719H43.8861H43.9004H43.9149H43.9295H43.9443H43.9592H43.9742H43.9894H44.0047H44.0202H44.0358H44.0515H44.0673H44.0833H44.0994H44.1157H44.132H44.1485H44.1652H44.1819H44.1988H44.2158H44.233H44.2503H44.2677H44.2852H44.3028H44.3206H44.3385H44.3565H44.3746H44.3929H44.4112H44.4297H44.4484H44.4671H44.4859H44.5049H44.524H44.5432H44.5625H44.5819H44.6014H44.6211H44.6409H44.6607H44.6807H44.7008H44.721H44.7413H44.7617H44.7823H44.8029H44.8236H44.8445H44.8654H44.8865H44.9077H44.9289H44.9503H44.9718H44.9933H45.015H45.0367H45.0586H45.0806H45.1026H45.1248H45.147H45.1694H45.1918H45.2144H45.237H45.2597H45.2826H45.3055H45.3285H45.3515H45.3747H45.398H45.4213H45.4448H45.4683H45.4919H45.5156H45.5394H45.5633H45.5873H45.6113H45.6354H45.6596H45.6839H45.7083H45.7327H45.7572H45.7818H45.8065H45.8313H45.8561H45.881H45.906H45.931H45.9562H45.9814H46.0067H46.032H46.0574H46.0829H46.1085H46.1341H46.1598H46.1856H46.2114H46.2373H46.2633H46.2893H46.3154H46.3415H46.3677H46.394H46.4204H46.4468H46.4732H46.4998H46.5264H46.553H46.5797H46.6065H46.6333H46.6601H46.6871H46.7141H46.7411H46.7682H46.7953H46.8225H46.8498H46.877H46.9044H46.9318H46.9592H46.9867H47.0142H47.0418H47.0695H47.0971H47.1249H47.1526H47.1804H47.2083H47.2362H47.2641H47.2921H47.3201H47.3481H47.3762H47.4044H47.4325H47.4607H47.489H47.5172H47.5455H47.5739H47.6023H47.6307H47.6591H47.6876H47.7161H47.7446H47.7732H47.8018H47.8304H47.859H47.8877H47.9164H47.9451H47.9739H48.0027H48.0315H48.0603H48.0891H48.118H48.1469H48.1758H48.2047H48.2337H48.2626H48.2916H48.3206H48.3496H48.3786H48.4077H48.4367H48.4658H48.4949H48.524H48.5531H48.5822H48.6113H48.6405H48.6696H48.6988H48.7279H48.7571H48.7863H48.8155H48.8446H48.8738H48.903H48.9322H48.9614H48.9906H49.0198H49.049H49.0782H49.1074H49.1366H49.1658H49.195H49.2242H49.2534H49.2826H49.3117H49.3409H49.3701H49.3992H49.4284H49.4575H49.4866H49.5158H49.5449H49.574H49.603H49.6321H49.6612H49.6902H49.7192H49.7482H49.7772H49.8062H49.8352H49.8641H49.893H49.922H49.9508H49.9797H50.0085H50.0374H50.0662H50.0949H50.1237H50.1524H50.1811H50.2098H50.2384H50.267H50.2956H50.3242H50.3527H50.3812H50.4097H50.4381H50.4665H50.4949H50.5233H50.5516H50.5798H50.6081H50.6363H50.6644H50.6926H50.7206H50.7487H50.7767H50.8047H50.8326H50.8605H50.8883H50.9161H50.9439H50.9716H50.9993H51.0269H51.0545H51.082H51.1095H51.137H51.1643H51.1917H51.219H51.2462H51.2734H51.3005H51.3276H51.3547H51.3816H51.4086H51.4354H51.4622H51.489H51.5157H51.5423H51.5689H51.5954H51.6219H51.6483H51.6746H51.7009H51.7271H51.7533H51.7794H51.8054H51.8314H51.8573H51.8831H51.9088H51.9345H51.9602H51.9857H52.0112H52.0366H52.062H52.0872H52.1124H52.1376H52.1626H52.1876H52.2125H52.2373H52.2621H52.2867H52.3113H52.3358H52.3603H52.3846H52.4089H52.4331H52.4572H52.4813H52.5052H52.5291H52.5529H52.5766H52.6002H52.6237H52.6471H52.6705H52.6938H52.7169H52.74H52.763H52.7859H52.8087H52.8314H52.8541H52.8766H52.899H52.9214H52.9436H52.9658H52.9878H53.0098H53.0317H53.0534H53.0751H53.0966H53.1181H53.1394H53.1607H53.1819H53.2029H53.2239H53.2447H53.2654H53.2861H53.3066H53.327H53.3473H53.3675H53.3876H53.4076H53.4274H53.4472H53.4668H53.4864H53.5058H53.5251H53.5443H53.5633H53.5823H53.6011H53.6199H53.6385H53.6569H53.6753H53.6936H53.7117H53.7297H53.7476H53.7653H53.783H53.8005H53.8179H53.8351H53.8523H53.8693H53.8862H53.9029H53.9195H53.936H53.9524H53.9686H53.9847H54.0007H54.0166H54.0323H54.0478H54.0633H54.0786H54.0937H54.1088H54.1237H54.1384H54.153H54.1675H54.1819H54.196H54.2101H54.224H54.2378H54.2514H54.2649H54.2782H54.2914H54.3045H54.3174H54.3301H54.3428H54.3552H54.3675H54.3797H54.3917H54.4036H54.4153H54.4268H54.4382H54.4495H54.4606H54.4715H54.4823H54.4929H54.5034H54.5137H54.5238H54.5338H54.5437H54.5533H54.5628H54.5722H54.5814H54.5904H54.5993H54.608H54.6165H54.6249C55.7968 45.5 56.7499 44.5469 56.7499 43.375C56.7499 42.2031 55.7968 41.25 54.6249 41.25H43.3749C42.4774 41.25 41.7499 40.5224 41.7499 39.625C41.7499 38.7276 42.4774 38 43.3749 38H54.6249C55.7968 38 56.7499 37.0469 56.7499 35.875C56.7499 34.7031 55.7968 33.75 54.6249 33.75H43.3749C42.8117 33.75 42.2886 33.4583 41.9925 32.9792C41.6965 32.5002 41.6696 31.902 41.9215 31.3982C42.8468 29.5476 43.9691 27.0772 44.8613 21.0938C45.09 19.5603 44.6417 18.0082 43.6311 16.8359C43.0351 16.1445 42.2794 15.6278 41.4421 15.3216L41.1465 15.2135L41.1081 15.5259C40.7994 18.0376 39.9915 20.9863 38.7291 23.5708C37.4639 26.161 35.7594 28.3508 33.6773 29.3946C30.5576 30.9587 25.2141 32.5793 22.6809 33.3067L22.4999 33.3587V33.547V56.9111V57.1063L22.6892 57.1537L36.0451 60.4925Z" fill="#D9D9DB" stroke="white" stroke-width="0.5"/>
<path d="M39.875 1.875C39.875 0.977571 40.6026 0.25 41.5 0.25C42.3974 0.25 43.125 0.977571 43.125 1.875V5.875C43.125 6.77243 42.3974 7.5 41.5 7.5C40.6026 7.5 39.875 6.77243 39.875 5.875V1.875Z" fill="#D9D9DB" stroke="white" stroke-width="0.5"/>
<path d="M28.0645 7.01794L28.0646 7.01796L30.7162 9.66959C31.3508 10.3042 31.3508 11.333 30.7162 11.9677L30.7162 11.9677C30.0817 12.6023 29.0526 12.6023 28.4181 11.9677L28.4181 11.9677L25.7665 9.31603C25.1319 8.68141 25.1319 7.65258 25.7665 7.01796C26.4011 6.38333 27.4301 6.38335 28.0645 7.01794Z" fill="#D9D9DB" stroke="white" stroke-width="0.5"/>
<path d="M20.875 21.125H24.625C25.5224 21.125 26.25 21.8526 26.25 22.75C26.25 23.6474 25.5224 24.375 24.625 24.375H20.875C19.9776 24.375 19.25 23.6474 19.25 22.75C19.25 21.8526 19.9776 21.125 20.875 21.125Z" fill="#D9D9DB" stroke="white" stroke-width="0.5"/>
<path d="M58.375 21.125H62.125C63.0224 21.125 63.75 21.8526 63.75 22.75C63.75 23.6474 63.0224 24.375 62.125 24.375H58.375C57.4776 24.375 56.75 23.6474 56.75 22.75C56.75 21.8526 57.4776 21.125 58.375 21.125Z" fill="#D9D9DB" stroke="white" stroke-width="0.5"/>
<path d="M57.2333 7.01794L57.2333 7.01796C57.8679 7.65258 57.8679 8.68141 57.2333 9.31603L54.5817 11.9677L54.5817 11.9677C53.9472 12.6023 52.9181 12.6023 52.2836 11.9677L52.2836 11.9677C51.649 11.333 51.649 10.3042 52.2836 9.66959L54.9352 7.01796C55.5699 6.38333 56.5988 6.38335 57.2333 7.01794Z" fill="#D9D9DB" stroke="white" stroke-width="0.5"/>
</svg>
