<svg width="18" height="18" viewBox="0 0 18 18" fill="none" xmlns="http://www.w3.org/2000/svg">
<path d="M11 5.75C11 5.75 11.7613 5.375 9 5.375C8.0111 5.375 7.0444 5.66824 6.22215 6.21765C5.39991 6.76706 4.75904 7.54795 4.3806 8.46158C4.00217 9.37521 3.90315 10.3805 4.09608 11.3504C4.289 12.3204 4.76521 13.2113 5.46447 13.9105C6.16373 14.6098 7.05465 15.086 8.02455 15.2789C8.99446 15.4718 9.99979 15.3728 10.9134 14.9944C11.827 14.616 12.6079 13.9751 13.1573 13.1528C13.7068 12.3306 14 11.3639 14 10.375" stroke="#B4B4B8" stroke-miterlimit="10" stroke-linecap="round"/>
<path d="M9 3L11.5 5.5L9 8" stroke="#B4B4B8" stroke-linecap="round" stroke-linejoin="round"/>
</svg>
