<svg width="64" height="65" viewBox="0 0 64 65" fill="none" xmlns="http://www.w3.org/2000/svg">
<path d="M60.5679 5.11816H37.1605C35.2687 5.11816 33.7297 6.61536 33.7297 8.4558V17.438H7.89884C5.74903 17.4381 4 19.1395 4 21.2309V52.2509C4 54.3422 5.74903 56.0437 7.89884 56.0437H25.2605L28.4642 59.1595C28.693 59.3821 28.9927 59.4933 29.2925 59.4933C29.5923 59.4933 29.892 59.3819 30.1208 59.1595L33.3245 56.0437H50.6862C52.836 56.0437 54.5849 54.3422 54.5849 52.2509V29.7099C54.7317 29.7723 54.8912 29.8053 55.0539 29.8053C55.0777 29.8053 55.1016 29.8046 55.1254 29.8031C55.4578 29.7834 55.7659 29.6269 55.9725 29.3728L57.811 27.1131H60.5692C62.4611 27.1131 64 25.6159 64 23.7755V8.45717C64.0001 6.61605 62.4604 5.11816 60.5679 5.11816ZM52.241 52.2508C52.241 53.0842 51.5435 53.7622 50.6861 53.7622H32.8393C32.5288 53.7622 32.2308 53.8822 32.011 54.0959L29.2924 56.7399L26.5739 54.0959C26.3541 53.8822 26.0563 53.7622 25.7456 53.7622H7.89884C7.04137 53.7622 6.34375 53.0842 6.34375 52.2508V21.2309C6.34375 20.3974 7.04137 19.7195 7.89884 19.7195H33.7297V23.7742C33.7297 25.6153 35.2694 27.1132 37.1619 27.1132H51.7718L52.2411 27.5643V52.2508H52.241ZM61.6564 23.7756C61.6564 24.3579 61.1687 24.8318 60.5693 24.8318H57.2442C56.8862 24.8318 56.5479 24.991 56.3256 25.2643L54.9469 26.9588L53.076 25.1608C52.8567 24.9499 52.5608 24.8318 52.2528 24.8318H37.1618C36.5617 24.8318 36.0733 24.3573 36.0733 23.7742V8.4558C36.0733 7.87346 36.561 7.39961 37.1604 7.39961H60.5678C61.1679 7.39961 61.6562 7.87403 61.6562 8.45717V23.7756H61.6564Z" fill="#D9D9DB"/>
<path d="M44.2824 15.9446C44.0936 15.5036 43.6283 15.216 43.1373 15.2418C42.6505 15.2675 42.2208 15.5966 42.0792 16.0504C41.9391 16.4996 42.1036 17.0006 42.4872 17.2861C42.8821 17.5803 43.4371 17.5966 43.8511 17.3294C44.3126 17.0315 44.4914 16.4411 44.2824 15.9446Z" fill="#D9D9DB"/>
<path d="M49.947 15.9454C49.7552 15.4972 49.2795 15.2091 48.7811 15.2441C48.2949 15.2783 47.8732 15.613 47.7386 16.0686C47.6036 16.5257 47.7845 17.0329 48.1825 17.3091C48.5772 17.583 49.1118 17.5895 49.5158 17.3302C49.978 17.0334 50.1558 16.4409 49.947 15.9454Z" fill="#D9D9DB"/>
<path d="M54.3001 15.2635C53.8175 15.3593 53.4402 15.7462 53.37 16.2212C53.2985 16.7047 53.5619 17.1888 54.0115 17.4047C54.4451 17.6127 54.9789 17.5361 55.3317 17.214C55.693 16.8844 55.8004 16.3517 55.5971 15.9132C55.3763 15.4371 54.8275 15.1609 54.3001 15.2635Z" fill="#D9D9DB"/>
<path d="M29.2924 28.3564C23.5649 28.3564 18.9053 32.8901 18.9053 38.4627C18.9053 44.0352 23.565 48.5688 29.2924 48.5688C35.02 48.5688 39.6797 44.0352 39.6797 38.4627C39.6797 32.8901 35.02 28.3564 29.2924 28.3564ZM29.2924 46.2873C24.8572 46.2873 21.249 42.7772 21.249 38.4627C21.249 34.1481 24.8574 30.6379 29.2924 30.6379C33.7276 30.6379 37.336 34.148 37.336 38.4627C37.336 42.7773 33.7276 46.2873 29.2924 46.2873Z" fill="#D9D9DB"/>
<path d="M27.1343 38.4893C27.7815 38.4893 28.3062 37.9786 28.3062 37.3486V35.5118C28.3062 34.8818 27.7815 34.3711 27.1343 34.3711C26.4871 34.3711 25.9624 34.8818 25.9624 35.5118V37.3486C25.9624 37.9786 26.4871 38.4893 27.1343 38.4893Z" fill="#D9D9DB"/>
<path d="M31.6826 38.4893C32.3298 38.4893 32.8545 37.9786 32.8545 37.3486V35.5118C32.8545 34.8818 32.3298 34.3711 31.6826 34.3711C31.0354 34.3711 30.5107 34.8818 30.5107 35.5118V37.3486C30.5107 37.9786 31.0354 38.4893 31.6826 38.4893Z" fill="#D9D9DB"/>
<path d="M25.9558 40.8981C25.4979 41.3434 25.4978 42.0657 25.9553 42.5113C26.4128 42.9569 27.1549 42.9572 27.6126 42.5118C28.539 41.6107 30.0459 41.6108 30.972 42.5118C31.2009 42.7344 31.5007 42.8457 31.8004 42.8457C32.1004 42.8457 32.4005 42.7342 32.6293 42.5113C33.0868 42.0657 33.0867 41.3434 32.6289 40.8981C30.789 39.1083 27.7955 39.1081 25.9558 40.8981Z" fill="#D9D9DB"/>
</svg>
