<svg width="24" height="24" viewBox="0 0 24 24" fill="none" xmlns="http://www.w3.org/2000/svg">
<path d="M12.9333 22H11.0667C10.4358 22 9.90333 21.5275 9.82833 20.9L9.62917 19.3367C9.23167 19.2075 8.84833 19.0483 8.48417 18.8625L7.23917 19.83C6.73417 20.2208 6.02333 20.1758 5.585 19.725L4.2725 18.4125C3.825 17.9783 3.78 17.2675 4.17083 16.7633L5.13833 15.5175C4.95167 15.1533 4.7925 14.77 4.66417 14.3725L3.0975 14.1733C2.4725 14.0967 2 13.5642 2 12.9333V11.0667C2 10.4358 2.4725 9.90333 3.1 9.82833L4.66333 9.62917C4.7925 9.23167 4.95167 8.84833 5.1375 8.48417L4.17083 7.23917C3.77917 6.73417 3.825 6.0225 4.27667 5.58417L5.58917 4.27167C6.02333 3.82417 6.735 3.78 7.23833 4.17L8.48333 5.13833C8.8475 4.9525 9.23083 4.79333 9.62917 4.66417L9.82833 3.0975C9.90333 2.4725 10.4358 2 11.0667 2H12.9333C13.5642 2 14.0967 2.4725 14.1717 3.1L14.3708 4.66333C14.7692 4.7925 15.1525 4.95167 15.5167 5.1375L16.7617 4.17C17.2675 3.77917 17.9775 3.82417 18.4158 4.27583L19.7283 5.58833C20.1758 6.0225 20.2208 6.73333 19.83 7.2375L18.8625 8.48333C19.0492 8.8475 19.2083 9.23083 19.3367 9.62833L20.9033 9.8275C21.5275 9.90333 22 10.4358 22 11.0667V12.9333C22 13.5642 21.5275 14.0967 20.9 14.1717L19.3367 14.3708C19.2075 14.7683 19.0483 15.1517 18.8625 15.5158L19.83 16.7608C20.2217 17.2658 20.1758 17.9767 19.7242 18.415L18.4117 19.7275C17.9775 20.175 17.2658 20.2208 16.7625 19.8292L15.5167 18.8617C15.1525 19.0483 14.7692 19.2075 14.3717 19.3358L14.1725 20.9025C14.0967 21.5275 13.5642 22 12.9333 22ZM8.44167 17.95C8.51083 17.95 8.58167 17.9675 8.645 18.0025C9.10417 18.2592 9.60167 18.4658 10.1233 18.6158C10.2833 18.6617 10.4008 18.7983 10.4217 18.9633L10.655 20.7967C10.68 21.0058 10.8608 21.1667 11.0667 21.1667H12.9333C13.1392 21.1667 13.32 21.0058 13.3442 20.8008L13.5783 18.9642C13.5992 18.7992 13.7167 18.6625 13.8767 18.6167C14.3983 18.4667 14.8958 18.26 15.355 18.0033C15.5008 17.9217 15.6825 17.9358 15.8133 18.0383L17.2717 19.1717C17.4392 19.3017 17.6742 19.2908 17.8175 19.1433L19.1383 17.8225C19.2892 17.6758 19.3008 17.4408 19.1708 17.2725L18.0375 15.8142C17.935 15.6825 17.9208 15.5017 18.0025 15.3558C18.2592 14.8967 18.4658 14.3992 18.6158 13.8775C18.6617 13.7175 18.7983 13.6 18.9633 13.5792L20.7967 13.3458C21.0058 13.32 21.1667 13.1392 21.1667 12.9333V11.0667C21.1667 10.8608 21.0058 10.68 20.8008 10.6558L18.9642 10.4217C18.7992 10.4008 18.6625 10.2833 18.6167 10.1233C18.4667 9.60167 18.26 9.10417 18.0033 8.645C17.9217 8.49917 17.935 8.31833 18.0383 8.18667L19.1717 6.72833C19.3025 6.56 19.2908 6.325 19.1442 6.18333L17.8233 4.8625C17.6775 4.71083 17.4417 4.69917 17.2733 4.83L15.815 5.96333C15.6825 6.06583 15.5017 6.08 15.3558 5.99833C14.8983 5.74167 14.4008 5.53583 13.8775 5.385C13.7175 5.33917 13.6 5.2025 13.5792 5.0375L13.3458 3.20417C13.32 2.99417 13.1392 2.83333 12.9333 2.83333H11.0667C10.8608 2.83333 10.68 2.99417 10.6558 3.19917L10.4217 5.03583C10.4008 5.20083 10.2833 5.3375 10.1233 5.38417C9.6 5.53417 9.1025 5.74083 8.645 5.99667C8.49917 6.07917 8.31833 6.06417 8.18583 5.9625L6.7275 4.82917C6.55917 4.69833 6.325 4.71 6.1825 4.85667L4.86167 6.17833C4.71083 6.325 4.69917 6.56 4.82917 6.72833L5.9625 8.18667C6.065 8.31833 6.07917 8.49917 5.9975 8.645C5.74 9.10417 5.53417 9.60167 5.38417 10.1233C5.33833 10.2833 5.20167 10.4008 5.03667 10.4217L3.20333 10.655C2.99417 10.68 2.83333 10.8608 2.83333 11.0667V12.9333C2.83333 13.1392 2.99417 13.32 3.19917 13.3442L5.03583 13.5783C5.20083 13.5992 5.3375 13.7167 5.38333 13.8767C5.53333 14.3983 5.74 14.8958 5.99667 15.355C6.07833 15.5008 6.065 15.6817 5.96167 15.8133L4.82833 17.2717C4.6975 17.44 4.70917 17.675 4.85583 17.8167L6.17667 19.1375C6.3225 19.2883 6.55667 19.3 6.72667 19.17L8.185 18.0367C8.26083 17.98 8.35083 17.95 8.44167 17.95Z" fill="#333333" stroke="#333333" stroke-width="0.1"/>
<path d="M11.9997 16.1661C9.70217 16.1661 7.83301 14.297 7.83301 11.9995C7.83301 9.70198 9.70217 7.83281 11.9997 7.83281C14.2972 7.83281 16.1663 9.70198 16.1663 11.9995C16.1663 14.297 14.2972 16.1661 11.9997 16.1661ZM11.9997 8.66614C10.1613 8.66614 8.66634 10.1611 8.66634 11.9995C8.66634 13.8378 10.1613 15.3328 11.9997 15.3328C13.838 15.3328 15.333 13.8378 15.333 11.9995C15.333 10.1611 13.838 8.66614 11.9997 8.66614Z" fill="#333333" stroke="#333333" stroke-width="0.1"/>
</svg>
