<svg width="87" height="24" viewBox="0 0 87 24" fill="none" xmlns="http://www.w3.org/2000/svg">
<path d="M14.1261 15.2652C14.1261 16.2477 13.9894 17.1355 13.716 17.9273C13.4426 18.7192 13.0587 19.4005 12.5654 19.9713C12.0709 20.5422 11.4825 20.9818 10.7978 21.2903C10.1143 21.5988 9.369 21.753 8.56307 21.753C7.75714 21.753 7.01302 21.5988 6.32833 21.2903C5.64483 20.9806 5.05525 20.5409 4.56194 19.9713C4.06744 19.4005 3.68469 18.7192 3.4101 17.9273C3.1367 17.1355 3 16.2477 3 15.2652C3 14.2984 3.1367 13.4155 3.4101 12.6151C3.6835 11.8148 4.06744 11.1298 4.56194 10.559C5.05525 9.98818 5.64483 9.54853 6.32833 9.24005C7.01183 8.93035 7.75714 8.77611 8.56307 8.77611C9.369 8.77611 10.1131 8.93035 10.7978 9.24005C11.4813 9.54853 12.0709 9.98818 12.5654 10.559C13.0587 11.1298 13.4426 11.8148 13.716 12.6151C13.9894 13.4143 14.1261 14.2984 14.1261 15.2652ZM11.9152 15.2652C11.9152 13.8709 11.6144 12.7657 11.0141 11.9496C10.4139 11.1334 9.59723 10.7254 8.56307 10.7254C7.52891 10.7254 6.71228 11.1334 6.11199 11.9496C5.5117 12.7657 5.21096 13.8709 5.21096 15.2652C5.21096 16.6594 5.51051 17.7646 6.11199 18.5807C6.71228 19.3969 7.52891 19.805 8.56307 19.805C9.59604 19.805 10.4139 19.3969 11.0141 18.5807C11.6144 17.7646 11.9152 16.6594 11.9152 15.2652Z" fill="#333333"/>
<path d="M26.3234 21.0874C25.8373 21.215 25.1954 21.3486 24.3966 21.4919C23.599 21.6352 22.6754 21.7056 21.6269 21.7056C20.7152 21.7056 19.9473 21.5672 19.3244 21.2903C18.7016 21.0134 18.1999 20.6211 17.8195 20.1134C17.4392 19.607 17.1658 19.0082 16.9994 18.3196C16.8317 17.6298 16.7485 16.8659 16.7485 16.0254V9.08456H18.8692V15.5493C18.8692 17.0553 19.0974 18.1326 19.5527 18.7823C20.0091 19.4321 20.7758 19.7576 21.8552 19.7576C22.0834 19.7576 22.3187 19.7491 22.5612 19.7333C22.8037 19.7175 23.032 19.6981 23.2447 19.6738C23.4575 19.6495 23.6513 19.6264 23.826 19.6021C24.0007 19.579 24.1256 19.5511 24.2028 19.5195V9.08456H26.3234V21.0874Z" fill="#333333"/>
<path d="M34.1211 8.8235C34.303 8.8235 34.5122 8.83565 34.7475 8.85994C34.9829 8.88301 35.2147 8.9158 35.4429 8.95467C35.6711 8.99474 35.8792 9.03361 36.0694 9.07369C36.2595 9.11377 36.3998 9.14899 36.4913 9.18056L36.1264 11.1055C35.9588 11.0424 35.6818 10.9671 35.2943 10.8796C34.9068 10.7934 34.4088 10.7497 33.8013 10.7497C33.4055 10.7497 33.0144 10.7934 32.6269 10.8796C32.2394 10.9671 31.985 11.0266 31.8638 11.0582V21.4458H29.7432V9.60928C30.2448 9.41982 30.8677 9.24129 31.613 9.0749C32.3571 8.90609 33.1939 8.8235 34.1211 8.8235Z" fill="#333333"/>
<path d="M40.2986 9.08465H44.7895V10.938H40.2986V16.6425C40.2986 17.2606 40.3438 17.7707 40.4353 18.1752C40.5269 18.5796 40.6636 18.8966 40.8454 19.1261C41.0285 19.3557 41.2555 19.5184 41.5289 19.6131C41.8023 19.7079 42.1221 19.7564 42.487 19.7564C43.1253 19.7564 43.6377 19.6811 44.0264 19.5305C44.4139 19.3799 44.6837 19.2731 44.8359 19.2099L45.246 21.0402C45.0332 21.1519 44.6611 21.2904 44.1286 21.4567C43.5961 21.6231 42.9886 21.7057 42.3051 21.7057C41.4992 21.7057 40.8347 21.5988 40.3105 21.3851C39.7863 21.1713 39.3643 20.8507 39.0458 20.422C38.7272 19.9945 38.5025 19.4674 38.373 18.8419C38.2434 18.2165 38.1792 17.4914 38.1792 16.6668V5.6379L40.2998 5.25777V9.08465H40.2986Z" fill="#333333"/>
<path d="M56.6906 21.0874C56.2044 21.215 55.5625 21.3486 54.7637 21.4919C53.9661 21.6352 53.0425 21.7056 51.9941 21.7056C51.0824 21.7056 50.3145 21.5672 49.6916 21.2903C49.0687 21.0134 48.5671 20.6211 48.1867 20.1134C47.8064 19.607 47.533 19.0082 47.3665 18.3196C47.1989 17.6298 47.1157 16.8659 47.1157 16.0254V9.08456H49.2363V15.5493C49.2363 17.0553 49.4646 18.1326 49.9198 18.7823C50.3763 19.4321 51.143 19.7576 52.2223 19.7576C52.4506 19.7576 52.6859 19.7491 52.9284 19.7333C53.1709 19.7175 53.3991 19.6981 53.6119 19.6738C53.8247 19.6495 54.0184 19.6264 54.1932 19.6021C54.3679 19.579 54.4927 19.5511 54.57 19.5195V9.08456H56.6906V21.0874Z" fill="#333333"/>
<path d="M62.23 9.63114C62.4879 9.45626 62.8802 9.27408 63.4044 9.08462C63.9286 8.89394 64.5325 8.79921 65.2172 8.79921C66.0683 8.79921 66.8243 8.9571 67.4852 9.27408C68.1461 9.59107 68.7048 10.0344 69.1612 10.6052C69.6177 11.176 69.9624 11.8573 70.199 12.6492C70.4343 13.4422 70.552 14.313 70.552 15.264C70.552 16.2623 70.4117 17.161 70.13 17.9614C69.8483 18.7617 69.4501 19.4394 68.933 19.9932C68.4159 20.5483 67.7931 20.9758 67.0632 21.277C66.3333 21.5782 65.5131 21.7288 64.6014 21.7288C63.6136 21.7288 62.7399 21.6571 61.9792 21.515C61.2196 21.3717 60.5955 21.2296 60.1094 21.0875V3.38012L62.23 2.99998V9.63114ZM62.23 19.5196C62.4428 19.5827 62.7423 19.6422 63.131 19.6981C63.5185 19.754 64.0011 19.7807 64.5788 19.7807C65.7188 19.7807 66.6305 19.3884 67.3152 18.6039C67.9987 17.8193 68.341 16.7068 68.341 15.264C68.341 14.63 68.2804 14.0361 68.158 13.4811C68.0367 12.9273 67.8394 12.4476 67.5648 12.0431C67.2914 11.6387 66.9384 11.3229 66.5045 11.0922C66.0718 10.8626 65.55 10.7473 64.9426 10.7473C64.3649 10.7473 63.8323 10.8505 63.3462 11.0557C62.86 11.2622 62.4868 11.476 62.2288 11.697V19.5196H62.23Z" fill="#333333"/>
<path d="M72.6489 15.2882C72.6489 14.1952 72.8011 13.2406 73.1054 12.4245C73.4097 11.6083 73.8115 10.9318 74.3131 10.3926C74.8147 9.85458 75.3924 9.45015 76.0462 9.18053C76.7 8.91092 77.3692 8.77611 78.0527 8.77611C79.6479 8.77611 80.8723 9.29591 81.7234 10.3331C82.5745 11.3715 83 12.9516 83 15.0745C83 15.1692 83 15.2931 83 15.4437C83 15.5943 82.9917 15.7328 82.9775 15.8591H74.8611C74.9526 17.1428 75.3092 18.1168 75.9321 18.7824C76.555 19.4479 77.5285 19.7807 78.8503 19.7807C79.5944 19.7807 80.2221 19.7139 80.7308 19.5791C81.2396 19.4443 81.6235 19.3143 81.8827 19.1868L82.1787 21.0401C81.9195 21.1834 81.4678 21.334 80.8224 21.4919C80.1757 21.6498 79.4435 21.7299 78.6221 21.7299C77.5879 21.7299 76.6952 21.5672 75.9428 21.2429C75.1903 20.9187 74.571 20.4705 74.0849 19.8997C73.5987 19.3289 73.2373 18.6524 73.002 17.8678C72.7666 17.0833 72.6489 16.2234 72.6489 15.2882ZM80.7879 14.0762C80.8033 13.0779 80.5632 12.2581 80.0699 11.6168C79.5754 10.9743 78.8955 10.6537 78.0289 10.6537C77.5428 10.6537 77.1136 10.7533 76.7404 10.9513C76.3683 11.1492 76.0521 11.4067 75.7942 11.7237C75.5351 12.0407 75.3342 12.405 75.1903 12.8167C75.0453 13.2297 74.9514 13.6487 74.9051 14.0762H80.7879Z" fill="#333333"/>
</svg>
