<svg width="18" height="18" viewBox="0 0 18 18" fill="none" xmlns="http://www.w3.org/2000/svg">
<path d="M13.6163 6.30333L14.1729 5.75443C14.3892 5.54112 14.3892 5.19527 14.1729 4.98207C13.9566 4.76877 13.606 4.76877 13.3897 4.98207L12.8331 5.53098C11.8992 4.76364 10.7644 4.30008 9.55386 4.19156V3.09236H10.5C10.8059 3.09236 11.0538 2.84776 11.0538 2.54613C11.0538 2.24449 10.8059 2 10.5 2C10.5 2 7.80588 2 7.5 2C7.19412 2 6.94619 2.24449 6.94619 2.54613C6.94619 2.84776 7.19412 3.09236 7.5 3.09236C7.80588 3.09236 8.44614 3.09236 8.44614 3.09236V4.19156C5.41594 4.46329 3 6.97357 3 10.0832C3 13.3533 5.68348 16 9.00005 16C12.3161 16 15 13.3537 15 10.0832C15 8.68629 14.5122 7.36343 13.6163 6.30333ZM8.99995 14.9076C6.30239 14.9076 4.10762 12.7434 4.10762 10.0832C4.10762 7.42303 6.30239 5.25882 8.99995 5.25882C11.6976 5.25882 13.8923 7.42303 13.8923 10.0832C13.8923 12.7434 11.6976 14.9076 8.99995 14.9076ZM11.5667 7.55217C11.783 7.76547 11.783 8.11133 11.5667 8.32452L9.39161 10.4694C9.17531 10.6827 8.82459 10.6827 8.60839 10.4694C8.39209 10.2561 8.39209 9.91025 8.60839 9.69705L10.7833 7.55217C10.9996 7.33887 11.3504 7.33887 11.5667 7.55217Z" fill="#B4B4B8" stroke="#B4B4B8" stroke-width="0.3"/>
</svg>
