<svg width="64" height="54" viewBox="0 0 64 54" fill="none" xmlns="http://www.w3.org/2000/svg">
<g clip-path="url(#clip0_1969_17933)">
<path d="M42.2286 27.9218C42.0221 28.0297 41.7731 28.0152 41.5806 27.8842L38.5472 25.82L35.4007 27.8903C35.1908 28.0287 34.9186 28.0287 34.7085 27.8903L31.5935 25.82L28.4848 27.8903C28.2749 28.0287 28.0025 28.0287 27.7926 27.8903L24.6461 25.82L21.6066 27.8903C21.4141 28.0216 21.1648 28.0361 20.9583 27.9282C20.7521 27.8207 20.6233 27.6069 20.625 27.3743V0.629226C20.626 0.282129 20.907 0.00091229 21.2543 -7.09859e-05H41.9328C42.2799 0.00091229 42.5611 0.282129 42.5621 0.629226V27.3743C42.5621 27.6049 42.4333 27.8161 42.2286 27.9218V27.9218ZM41.3035 1.25213H21.8836V26.1787L24.2875 24.5425C24.4974 24.3989 24.7735 24.3965 24.9858 24.5361L28.1323 26.6128L31.2473 24.5425C31.4597 24.4041 31.7338 24.4041 31.946 24.5425L35.0546 26.6128L38.2011 24.5361C38.4137 24.3965 38.6897 24.3989 38.8997 24.5425L41.3035 26.1787V1.25213Z" fill="#333333"/>
<path d="M36.6911 4.98633H26.4965C26.1491 4.98633 25.8672 4.75131 25.8672 4.46133C25.8672 4.17155 26.1491 3.93633 26.4965 3.93633H36.6911C37.0387 3.93633 37.3204 4.17155 37.3204 4.46133C37.3204 4.75131 37.0387 4.98633 36.6911 4.98633V4.98633Z" fill="#333333"/>
<path d="M34.6029 17.637C34.4382 17.821 34.2068 17.9974 33.9088 18.1661C33.6186 18.3348 33.2813 18.4728 32.897 18.5801C32.5206 18.6875 32.1166 18.7412 31.6853 18.7412C30.948 18.7412 30.2813 18.5725 29.6853 18.2351C29.097 17.89 28.6264 17.4069 28.2735 16.7858C27.9284 16.1647 27.7559 15.4363 27.7559 14.6005C27.7559 14.0101 27.8617 13.4657 28.0735 12.9672C28.2853 12.4688 28.5794 12.0356 28.9559 11.6675C29.3323 11.2995 29.7637 11.0158 30.25 10.8164C30.7363 10.6094 31.25 10.5059 31.7912 10.5059C32.2382 10.5059 32.6539 10.5749 33.0382 10.7129C33.4304 10.8432 33.7715 11.0158 34.0617 11.2305C34.3598 11.4375 34.5912 11.6599 34.7559 11.8976L33.9088 12.7602C33.6186 12.4688 33.297 12.2273 32.9441 12.0356C32.5912 11.8439 32.2068 11.7481 31.7912 11.7481C31.3206 11.7481 30.8735 11.8631 30.45 12.0931C30.0343 12.3231 29.697 12.6529 29.4382 13.0823C29.1794 13.504 29.05 14.0101 29.05 14.6005C29.05 15.2446 29.1794 15.7814 29.4382 16.2108C29.7049 16.6402 30.0539 16.9622 30.4853 17.1769C30.9245 17.3839 31.3951 17.4875 31.897 17.4875C32.3598 17.4875 32.7676 17.3993 33.1206 17.2229C33.4735 17.0389 33.7559 16.8395 33.9676 16.6248L34.6029 17.637Z" fill="#333333"/>
<path d="M31.5937 21.9863C27.5274 21.9863 24.231 18.6899 24.231 14.6236C24.231 10.5572 27.5274 7.26081 31.5937 7.26081C35.6601 7.26081 38.9565 10.5572 38.9565 14.6236C38.9513 18.6879 35.6581 21.9812 31.5937 21.9863V21.9863ZM31.5937 8.5194C28.2226 8.5194 25.4896 11.2524 25.4896 14.6236C25.4896 17.995 28.2226 20.7277 31.5937 20.7277C34.9651 20.7277 37.6979 17.995 37.6979 14.6236C37.6947 11.2536 34.9637 8.5226 31.5937 8.5194V8.5194Z" fill="#333333"/>
</g>
<path d="M14.5468 39.478V52.064H15.6948V39.478H14.5468ZM9.07276 40.444C7.21076 40.444 5.88076 42.152 5.88076 44.826C5.88076 47.5 7.21076 49.208 9.07276 49.208C10.9348 49.208 12.2648 47.5 12.2648 44.826C12.2648 42.152 10.9348 40.444 9.07276 40.444ZM9.07276 41.48C10.2908 41.48 11.1588 42.796 11.1588 44.826C11.1588 46.87 10.2908 48.186 9.07276 48.186C7.84076 48.186 6.97276 46.87 6.97276 44.826C6.97276 42.796 7.84076 41.48 9.07276 41.48ZM23.9677 51.14C21.9937 51.14 20.8317 50.65 20.8317 49.796C20.8317 48.942 21.9937 48.452 23.9677 48.452C25.9277 48.452 27.1037 48.942 27.1037 49.796C27.1037 50.65 25.9277 51.14 23.9677 51.14ZM23.9677 47.556C21.2797 47.556 19.6697 48.354 19.6697 49.796C19.6697 51.238 21.2797 52.022 23.9677 52.022C26.6697 52.022 28.2657 51.238 28.2657 49.796C28.2657 48.354 26.6697 47.556 23.9677 47.556ZM22.2317 44.224C22.7497 44.308 23.3377 44.364 23.9677 44.364C24.6117 44.364 25.1997 44.308 25.7177 44.224V45.694H22.2317V44.224ZM20.7337 42.04C20.7337 41.13 21.9657 40.598 23.9677 40.598C25.9697 40.598 27.2017 41.13 27.2017 42.04C27.2017 42.936 25.9697 43.482 23.9677 43.482C21.9657 43.482 20.7337 42.936 20.7337 42.04ZM26.8517 45.694V43.916C27.8177 43.524 28.3777 42.88 28.3777 42.04C28.3777 40.57 26.6977 39.702 23.9677 39.702C21.2517 39.702 19.5577 40.57 19.5577 42.04C19.5577 42.894 20.1037 43.524 21.0977 43.93V45.694H18.2837V46.618H29.6517V45.694H26.8517ZM36.0714 41.004H34.9234V48.774H35.7214C37.0794 48.774 38.5214 48.704 40.2154 48.382L40.1034 47.388C38.6054 47.682 37.2754 47.766 36.0714 47.78V41.004ZM43.8554 39.478V44.588H42.0774V39.758H40.9994V51.392H42.0774V45.54H43.8554V52.022H44.9614V39.478H43.8554ZM49.1323 48.508H56.3703V52.05H57.5323V47.57H49.1323V48.508ZM53.6963 44.14C53.7803 43.846 53.8363 43.538 53.8363 43.188C53.8363 42.852 53.7803 42.544 53.6963 42.25H56.3703V44.14H53.6963ZM50.6023 45.246C49.3843 45.246 48.4743 44.392 48.4743 43.188C48.4743 42.012 49.3843 41.158 50.6023 41.158C51.8343 41.158 52.7443 42.012 52.7443 43.188C52.7443 44.392 51.8343 45.246 50.6023 45.246ZM56.3703 39.492V41.326H53.2063C52.6183 40.612 51.6943 40.178 50.6023 40.178C48.7543 40.178 47.3823 41.424 47.3823 43.188C47.3823 44.966 48.7543 46.226 50.6023 46.226C51.6943 46.226 52.6043 45.792 53.1923 45.078H56.3703V46.884H57.5323V39.478L56.3703 39.492Z" fill="#333333"/>
<defs>
<clipPath id="clip0_1969_17933">
<rect width="28" height="28" fill="white" transform="translate(18)"/>
</clipPath>
</defs>
</svg>
