<svg width="24" height="24" viewBox="0 0 24 24" fill="none" xmlns="http://www.w3.org/2000/svg">
<path d="M20.9098 12.044L20.9313 12L20.9098 11.956C19.2431 8.5519 15.8284 6.4 12 6.4C8.17164 6.4 4.7569 8.5519 3.09019 11.956L3.06866 12L3.09019 12.044C4.75687 15.448 8.16158 17.6 12 17.6C15.8384 17.6 19.2431 15.448 20.9098 12.044ZM1.10756 12C2.83234 7.66614 7.05653 4.6 12 4.6C16.9435 4.6 21.1677 7.66614 22.8924 12C21.1677 16.3339 16.9435 19.4 12 19.4C7.05653 19.4 2.83234 16.3339 1.10756 12ZM14.6 12C14.6 10.5648 13.4352 9.4 12 9.4C10.5648 9.4 9.4 10.5648 9.4 12C9.4 13.4352 10.5648 14.6 12 14.6C13.4352 14.6 14.6 13.4352 14.6 12ZM7.6 12C7.6 9.57523 9.57523 7.6 12 7.6C14.4248 7.6 16.4 9.57523 16.4 12C16.4 14.4248 14.4248 16.4 12 16.4C9.57523 16.4 7.6 14.4248 7.6 12Z" fill="#B4B4B8" stroke="white" stroke-width="0.2"/>
</svg>
