<svg width="64" height="54" viewBox="0 0 64 54" fill="none" xmlns="http://www.w3.org/2000/svg">
<g clip-path="url(#clip0_1969_17934)">
<path d="M23.0397 20.2464L23.04 20.2464C23.4345 20.1897 23.8008 20.4655 23.8568 20.8609L24.3042 24.0223L24.4032 24.0083L24.3042 24.0223C24.3743 24.5167 23.9142 24.9699 23.3901 24.822L23.3902 24.8216L23.3818 24.82L20.0559 24.1811C19.6638 24.1058 19.4071 23.7269 19.4824 23.3348C19.5577 22.9427 19.9365 22.686 20.3288 22.7613L21.1239 22.914L21.3927 22.9656L21.2205 22.7529C20.2614 21.5679 19.498 20.2248 18.9688 18.778L18.8749 18.8123L18.9688 18.778C15.1923 8.45281 24.326 -1.8269 34.8562 0.419753C35.2467 0.503083 35.4957 0.887147 35.4124 1.27759C35.329 1.66803 34.9449 1.91686 34.5545 1.83376C25.0849 -0.186221 16.9638 9.08685 20.3266 18.2813C20.8017 19.5803 21.4875 20.7855 22.3487 21.8484L22.576 22.1289L22.5254 21.7715L22.4253 21.0635C22.3693 20.6682 22.6444 20.3023 23.0397 20.2464Z" fill="#333333" stroke="white" stroke-width="0.2"/>
<path d="M42.8938 5.09508L42.625 5.04346L42.7972 5.2562C43.7563 6.44121 44.5197 7.78432 45.0488 9.2311L45.1428 9.19675L45.0488 9.2311C47.6839 16.4357 43.9968 24.4018 36.8051 27.0418C34.3501 27.9431 31.707 28.1323 29.1615 27.5892C28.771 27.5059 28.522 27.1218 28.6053 26.7314C28.6887 26.3409 29.0729 26.0919 29.4632 26.1752C31.7417 26.6613 34.1083 26.4917 36.3069 25.6846C42.7339 23.3251 46.0462 16.1669 43.6911 9.72763C43.216 8.42871 42.5303 7.22347 41.669 6.16056L41.4417 5.88006L41.4923 6.23753L41.5925 6.9455C41.6539 7.37931 41.3177 7.76983 40.8757 7.76983C40.5214 7.76983 40.212 7.50901 40.161 7.14812L39.7136 3.98671L39.7136 3.98669C39.6425 3.48519 40.1091 3.04114 40.6271 3.18695L40.627 3.1873L40.6353 3.1889L43.9618 3.82797C44.3539 3.9033 44.6107 4.28219 44.5353 4.67431C44.46 5.06631 44.0809 5.32299 43.689 5.24781C43.689 5.24781 43.689 5.24781 43.689 5.24781L42.8938 5.09508Z" fill="#333333" stroke="white" stroke-width="0.2"/>
<path d="M32.009 5.60195C36.6573 5.60195 40.4394 9.3902 40.4394 14.0467C40.4394 18.7033 36.6573 22.4915 32.009 22.4915C27.3607 22.4915 23.5785 18.7033 23.5785 14.0467C23.5785 9.3902 27.3607 5.60195 32.009 5.60195ZM32.009 7.04778C28.1574 7.04778 25.0243 10.1876 25.0243 14.0467C25.0243 17.9059 28.1574 21.0457 32.009 21.0457C35.8606 21.0457 38.9936 17.9059 38.9936 14.0467C38.9936 10.1876 35.8606 7.04778 32.009 7.04778Z" fill="#333333" stroke="white" stroke-width="0.2"/>
<path d="M35.3563 17.3897C35.171 17.5967 34.9107 17.7951 34.5754 17.9849C34.2489 18.1747 33.8695 18.33 33.4371 18.4507C33.0136 18.5715 32.5592 18.6319 32.0739 18.6319C31.2445 18.6319 30.4945 18.4421 29.8239 18.0626C29.1621 17.6744 28.6327 17.1309 28.2357 16.4322C27.8474 15.7334 27.6533 14.9139 27.6533 13.9737C27.6533 13.3094 27.7724 12.697 28.0107 12.1362C28.2489 11.5755 28.5798 11.0881 29.0033 10.6741C29.4268 10.26 29.9121 9.94084 30.4592 9.71656C31.0063 9.48364 31.5842 9.36719 32.193 9.36719C32.696 9.36719 33.1636 9.44482 33.596 9.6001C34.0371 9.74675 34.421 9.94084 34.7474 10.1824C35.0827 10.4153 35.343 10.6655 35.5283 10.9329L34.5754 11.9033C34.2489 11.5755 33.8871 11.3038 33.4901 11.0881C33.093 10.8725 32.6607 10.7647 32.193 10.7647C31.6636 10.7647 31.1607 10.8941 30.6842 11.1528C30.2166 11.4116 29.8371 11.7826 29.546 12.2656C29.2548 12.7401 29.1092 13.3094 29.1092 13.9737C29.1092 14.6983 29.2548 15.3021 29.546 15.7852C29.846 16.2683 30.2386 16.6306 30.7239 16.8721C31.218 17.105 31.7474 17.2215 32.3121 17.2215C32.8327 17.2215 33.2916 17.1223 33.6886 16.9239C34.0857 16.7168 34.4033 16.4926 34.6416 16.251L35.3563 17.3897Z" fill="#333333" stroke="white" stroke-width="0.2"/>
</g>
<path d="M6.13276 40.99V41.914H9.82876C9.78676 42.586 9.68876 43.23 9.52076 43.86L5.51676 44.126L5.67076 45.12L9.21276 44.756C8.59676 46.254 7.44876 47.57 5.51676 48.634L6.17476 49.46C9.98276 47.36 10.9488 44.266 10.9488 40.99H6.13276ZM14.9808 39.478V44.56H13.2868V39.786H12.2088V51.42H13.2868V45.512H14.9808V52.036H16.0728V39.478H14.9808ZM22.7497 40.57H21.6157V42.824C21.6157 45.204 20.0897 47.612 18.2417 48.494L18.9417 49.432C20.4117 48.676 21.6157 47.108 22.1897 45.218C22.7917 47.01 23.9957 48.494 25.4237 49.194L26.1097 48.27C24.2477 47.43 22.7497 45.12 22.7497 42.824V40.57ZM27.4257 39.478V52.064H28.5737V39.478H27.4257ZM35.2454 44.49C37.3594 44.322 39.2214 43.678 39.9914 42.516C40.7614 43.678 42.6094 44.322 44.7094 44.49L45.0594 43.622C42.7214 43.468 40.8314 42.698 40.6354 41.452H44.4994V40.584H40.5654V39.394H39.4174V40.584H35.4694V41.452H39.3474C39.1514 42.698 37.2334 43.468 34.9094 43.622L35.2454 44.49ZM45.6474 45.932V45.05H34.3214V45.932H39.4034V47.094H35.6654V47.948H43.0714V49.012H35.7074V51.896H44.5834V51.028H36.8274V49.838H44.2054V47.094H40.5654V45.932H45.6474ZM49.7063 48.326H56.0203V50.944H49.7063V48.326ZM48.5863 51.868H57.1543V47.402H48.5863V51.868ZM56.7763 44.77C57.1123 43.202 57.1123 42.054 57.1123 41.074V40.15H48.6283V41.074H55.9783C55.9783 42.054 55.9783 43.202 55.6143 44.77H47.1723V45.694H58.5823V44.77H56.7763Z" fill="#333333"/>
<defs>
<clipPath id="clip0_1969_17934">
<rect width="28" height="28" fill="white" transform="translate(18)"/>
</clipPath>
</defs>
</svg>
